<?xml version="1.0" encoding="UTF-8"?>
<svg id="Livello_1" xmlns="http://www.w3.org/2000/svg" version="1.1" viewBox="40 40 455 386">
  <!-- Generator: Adobe Illustrator 30.3.0, SVG Export Plug-In . SVG Version: 2.1.3 Build 182)  -->
  <defs>
    <style>
      .st0, .st1 {
        fill: #b44418;
      }

      .st1 {
        stroke: #000;
      }
    </style>
  </defs>
  <path class="st0" d="M251.71,462.92c-35.06-2.38-73.76-14.86-103.96-33.55-12.22-7.56-12.02-8.43.34-1.54,36.69,20.44,73.26,30.1,114.1,30.15,66.49.08,127.31-28.18,173.74-80.73,5.1-5.77,5.84-6.25,9.67-6.25,2.28,0,4.43.46,4.78,1.02.82,1.33-12.79,17.09-24.64,28.51-37.39,36.05-88.47,58.59-141.54,62.47-14.28,1.04-15.91,1.04-32.49-.08h0ZM162.87,386.07c0-2.59,5.45-20.63,6.43-21.28.59-.39,1.57-.17,2.19.5,2.73,2.98,9.68,19.43,8.8,20.85-.99,1.61-2.04.87-3.71-2.64-1.48-3.11-2.1-3.5-5.54-3.5s-3.96.31-4.78,3.17c-.87,3.03-3.38,5.19-3.38,2.9h0ZM173.87,377.12c0-.48-.72-2.6-1.6-4.7-1.74-4.16-2.59-3.65-3.87,2.33-.67,3.11-.56,3.25,2.39,3.25,1.69,0,3.08-.4,3.08-.88h0ZM183.87,379c0-3.85-.02-7.34-.05-7.75-.07-.98,8.04-2.6,8.86-1.77.35.35-.82,1.76-2.59,3.15-2.92,2.29-3.22,3.02-3.22,7.95,0,4.16-.35,5.43-1.5,5.43s-1.5-1.44-1.5-7h0ZM195.62,384.96c-3.92-2.38-1.22-7.99,4.5-9.35,4.69-1.11,2.44-4.72-2.7-4.33-1.68.13-3.03-.35-3.32-1.18-.39-1.11.47-1.29,4.24-.86,2.6.29,5.31,1.15,6.02,1.89.7.75,1.58,4.17,1.95,7.61.61,5.73.51,6.25-1.26,6.25-1.06,0-3.22.23-4.8.51-1.58.28-3.66.03-4.62-.55h0ZM202.3,382.43c2.51-2.51,1.98-4.61-1.08-4.24-3.39.4-5.51,3.46-3.35,4.83,2.05,1.31,2.61,1.23,4.43-.58ZM210.87,377.51c0-3.98-.29-9.32-.64-11.87-.53-3.89-.37-4.64,1-4.64,1.03,0,1.64.84,1.65,2.25.03,5.36.86,6.32,5.09,5.91,6.89-.66,10.41,4.84,7.3,11.39-1.75,3.68-3.16,4.27-10.16,4.22l-4.25-.03v-7.23ZM220.93,380.96c2.34-1.25,2.66-7.11.49-8.92-4.13-3.43-9.17,2.11-6.76,7.41,1.24,2.71,3.15,3.17,6.27,1.51h0ZM230.38,379.81c-.35-2.37-.52-6.56-.38-9.31s.06-5.67-.19-6.5c-.25-.84.18-1.5.99-1.5.99,0,1.51,1.33,1.66,4.28.12,2.35.37,7.04.56,10.4.41,7.37-1.65,9.42-2.65,2.63h0ZM239.94,381.41c-3.98-3.35-4.24-8.34-.62-11.96,2.46-2.46,8.55-3.5,8.55-1.45,0,.55-.9,1-2,1-2.71,0-6,3.48-6,6.35s2.88,5.65,5.77,5.65c2.65,0,3.74,1.59,1.64,2.4-2.75,1.06-4.18.67-7.34-1.98h0ZM260.49,378.87c-.34-1.72-.62-6.61-.62-10.88v-7.75l3-.6c4.64-.93,8.62.27,10.1,3.04,1.14,2.13,1.09,2.9-.31,5.34-1.54,2.68-1.52,3.09.28,6.62,2.35,4.6,2.44,6.6.3,6.17-.89-.18-2.13-1.9-2.75-3.82-.88-2.73-1.73-3.57-3.88-3.82-2.64-.3-2.75-.14-2.75,4.25,0,5.39-2.38,6.41-3.38,1.44h0ZM268.93,368.96c3.94-2.11,1.67-6.96-3.27-6.96-2.6,0-2.8.29-2.8,4,0,3.38.32,4,2.07,4,1.14,0,2.94-.47,4-1.04h0ZM280.12,379.49c-1.81-1.29-2.25-2.56-2.25-6.55,0-5.68,2.39-8.94,6.55-8.94,3.06,0,7.45,4.1,7.45,6.95,0,1.81-.63,2.05-5.5,2.05s-5.5.25-5.5,1.96c0,3.1,2.86,3.86,11.99,3.17,6.68-.5,8.55-.98,8.8-2.25.19-1.01-.84-2.08-2.78-2.89-4.14-1.72-5.33-4.1-3.4-6.85,1.05-1.5,2.56-2.15,4.95-2.15,1.89,0,3.44.45,3.44,1s-1.35,1-3,1c-4.14,0-3.98,3.03.27,5,3.51,1.63,4.89,5.83,2.53,7.71-.72.57-5.8,1.34-11.3,1.71-8.32.56-10.38.4-12.25-.93h0ZM287.87,369.11c0-3.69-5.91-3.39-7.35.37-.47,1.21.23,1.53,3.38,1.53s3.97-.35,3.97-1.89h0ZM311.68,378.75c-.9-.72-1.82-3.55-2.16-6.67-.33-2.98-1.16-5.78-1.86-6.21-1.01-.62-1.02-1.04-.03-2.03.68-.68,1.24-2.05,1.24-3.04,0-2.64,1.9-2.19,3,.7.52,1.38,1.75,2.53,2.73,2.56,1.39.05,1.29.26-.48.97-1.62.65-2.25,1.73-2.25,3.87,0,4.19,1.68,8.1,3.48,8.1,2,0,1.96,1.62-.06,2.39-2.01.77-1.77.82-3.61-.64h0ZM319.44,377.08c-2.33-2.57-.65-5.73,4.09-7.72,2.89-1.21,3.29-1.72,2.3-2.92-.66-.8-2.61-1.46-4.33-1.47-2.39-.01-2.77-.24-1.63-.98,2.15-1.39,8.58-1.22,9.75.25.55.69,1.29,4,1.66,7.36l.66,6.11-3.78.63c-5.78.96-6.83.8-8.71-1.27h0ZM327.34,375.38c2-2,1.52-3.79-1.14-4.18-2.86-.42-4.98,2.31-3.33,4.3,1.59,1.91,2.47,1.89,4.47-.12h0ZM337.33,375.59c-1.75-2.67-1.72-13.09.03-13.09.55,0,1.23,2.25,1.52,5,.61,5.89,1.45,7.5,3.92,7.5,3.05,0,4.38-2.59,3.66-7.12-.41-2.56-.22-4.63.49-5.48,2.07-2.5,2.92-.39,2.92,7.28,0,7.06-.13,7.52-2,7.03-1.1-.29-2.25-.11-2.56.38-1.19,1.92-6.37.94-7.97-1.5h0ZM354.72,370.5c-.08-3.58-.2-7.03-.25-7.67-.12-1.35,2-1.76,12.58-2.45,9-.59,9.17-.43,10.23,9.34l.68,6.21-2.8.05c-1.54.03-4.09.09-5.66.14-6.96.21-7.08-6.73-.16-9.24,2.31-.83,3.49-1.85,3.29-2.84-.23-1.19-1.6-1.51-6.05-1.4-7.64.19-8.72,1.24-8.72,8.48,0,4.56-.34,5.88-1.5,5.88s-1.53-1.46-1.65-6.5h0ZM373.76,372.2c1.58-2.96-.23-4.82-3.32-3.41-3.74,1.7-3.36,5.21.56,5.21.99,0,2.23-.81,2.76-1.8h0ZM382.07,367.36l.29-7.64,5.75-.42c5.46-.4,5.8-.29,6.75,2.21.55,1.45,1,5.08,1,8.07,0,4.16-.35,5.43-1.5,5.43s-1.5-1.27-1.5-5.43c0-3.6-.53-5.96-1.57-7-1.92-1.92-2.53-1.95-4.89-.22-1.57,1.15-1.75,2.19-1.18,7,.62,5.25.52,5.65-1.39,5.65s-2.03-.51-1.76-7.64h0ZM401.84,371.44c-.54-1.41-.98-4.17-.98-6.14,0-2.23-.66-4.07-1.75-4.9-1.11-.84-1.28-1.34-.48-1.36.7-.02,1.75-1.27,2.32-2.78,1-2.63,1.09-2.66,2.15-.75.61,1.1,1.81,2.55,2.68,3.22,1.41,1.09,1.39,1.22-.18,1.25-2.72.05-2.51,9.54.25,11.26,2.72,1.7,2.51,2.77-.52,2.77-1.79,0-2.81-.75-3.5-2.57h0ZM54.94,369.23c-2.84-2.84-3.07-3.6-3.07-9.96,0-7.2,1.56-10.38,5.72-11.66.98-.3,14.38-1.23,29.78-2.07,15.4-.84,36.66-2.04,47.24-2.67l19.24-1.15,8.04,5.57,18.74-1.19c10.31-.66,29.76-1.61,43.24-2.13,13.48-.52,29.68-1.38,36-1.93,6.33-.54,25.45-1.68,42.5-2.52,17.05-.84,38.88-1.98,48.5-2.53s26.73-1.51,38-2.13,21.42-1.47,22.55-1.89c1.36-.51,3.01-3.25,4.9-8.11,1.56-4.04,3.3-7.93,3.85-8.64.73-.94.18-2.17-2.02-4.5-12-12.71-16.41-26.29-17.83-54.9-1.49-29.88,7.05-49.74,25.05-58.3,5.26-2.5,7.18-2.86,15.5-2.9,8.19-.04,10.27.31,15.12,2.56,14.77,6.84,23.44,20.98,27.4,44.69,3.17,18.98.89,45.58-4.9,57.19-.9,1.8-1.52,3.37-1.38,3.49.14.12,3.11-.18,6.6-.66,3.49-.49,9.72-1,13.83-1.13,11.79-.39,11.51-1.31,12.94,42.36.87,26.86,2.46,24.93-20.36,24.79-9.21-.05-27.17-.39-39.9-.75-26.91-.76-24.72.12-31.93-12.74-5.55-9.88-1.31-9.04-34.92-6.94-12.65.79-31.77,1.92-42.5,2.51-10.73.59-30.98,1.76-45,2.58-35.86,2.11-78.96,4.51-89,4.95-4.68.2-16.82.89-26.98,1.53-18.08,1.13-18.55,1.21-21.68,3.96-2.78,2.44-4.28,2.88-11.52,3.4-7.9.56-50.24,2.93-76.5,4.28l-12.18.62-3.08-3.07ZM70.67,362.8c2.13-2.13,1.45-6.73-1.17-7.92-3.47-1.58-6.63.37-6.63,4.11,0,4.2,4.98,6.64,7.8,3.81h0ZM495.83,354.38c1.28-1.21,1.27-1.57-.09-2.94-1.34-1.34-5.55-1.55-30.46-1.47-30.18.09-32.62.44-31.09,4.43.49,1.29,3.2,1.61,15.89,1.88,24.52.53,44.05-.28,45.76-1.89h0ZM478.27,339.99c15.17-.84,17.51-1.4,17.58-4.17.05-2.21-3.35-3.74-7.28-3.28-4.93.58-47.59,3.45-51.26,3.45-2.66,0-4.04,2.01-3.09,4.49.61,1.6,7.64,1.52,44.05-.5h0ZM464.36,324.48c14.3-1.39,27.01-2.75,28.25-3.02,2.47-.54,3.05-3.56,1-5.22-1.52-1.22-26.18,1.06-35.41,3.28-3.39.81-10.2,1.48-15.13,1.48-8,0-9.02.21-9.47,1.92-.57,2.18.93,4.08,3.22,4.09.85,0,13.25-1.13,27.55-2.53h0ZM452.86,298.24c5.45-5.45,6.53-11.31,6.4-34.74-.08-15.32-.51-20.88-2.21-28.73-3.46-15.96-7.04-20.77-15.43-20.77-9.95,0-13.92,5.14-16.35,21.16-1.59,10.47-1.47,16.66.69,34.84,2.96,24.9,6.89,31.98,17.77,31.99,4.88,0,5.71-.34,9.13-3.76h0ZM43.86,340.25c-6.21-3.1-7.26-6.68-6.5-22.25.36-7.42.98-17.77,1.38-23,.91-11.9-.16-23.39-3.93-42.34-5.78-29.05-3.61-34.16,14.55-34.16,6.95,0,8.62.37,12.72,2.78,8.91,5.23,13.36,13.61,18.74,35.22,1.23,4.95,2.68,11.25,3.23,14,2.48,12.57,4.29,8.64,5.27-11.5,1.2-24.59,3.82-32.42,13.28-39.63,7.36-5.61,22.2-7.04,28.02-2.7,4.27,3.19,4.7,6.22,3.4,23.83-2.26,30.48-1.63,41.48,3.79,66.4,2.39,10.99,2.64,21.04.62,24.95-1.74,3.36-5.47,5.17-12.08,5.86-7.19.75-11.8-1.43-14.58-6.88-2.45-4.79-2.45-1.22.12-56.71,1.08-23.31.97-26.12-1.03-26.12s-2.99,3.74-6.47,25.5c-3.03,18.96-3.73,22.14-6.22,28.47-3.35,8.49-4.77,10.03-9.28,10.03-6.93,0-12.58-9.49-20.85-35-6.99-21.59-9.13-27-10.65-27-2.49,0-2.42,2.9.43,17.19,1.57,7.87,3.59,19.04,4.5,24.81s2.52,14.38,3.59,19.12c2.4,10.63,2.49,18.92.27,23.6-3.08,6.49-14.66,9.35-22.33,5.52h0ZM154.69,335.39c-7.54-3.15-8.41-9.01-6.01-40.39,1.36-17.84.89-26.31-2.3-41-5.29-24.42-5.97-29.52-4.43-33.56,2.25-5.92,5.76-7.88,14.73-8.24,6.3-.25,8.26.05,10.87,1.69,4.58,2.87,5.15,6.25,3.92,23.1-1.76,23.96-1.27,44.76,1.35,57,5.58,26.09,5.78,27.82,4.01,34.17-.81,2.92-1.89,4.08-5.24,5.65-6.03,2.82-12.45,3.42-16.9,1.56h0ZM191.17,332.35c-6.11-3.17-6.6-7.82-4.83-46.55.87-18.98.52-22.79-4.16-45.79-1.92-9.45-2.4-14.19-1.98-19.42.64-7.8,1.13-7.04-8.8-13.67-3.27-2.19-9.7-5.14-14.27-6.57-7.48-2.33-9.46-2.54-19.55-2.1-8.94.39-12.75,1.05-18.73,3.25-10.97,4.03-23.06,11.35-31.39,19-4.93,4.52-5.77,3.85-1.63-1.3,7.87-9.79,25.21-21.04,39.82-25.82,7.77-2.55,10.11-2.85,21.71-2.85,7.15,0,14.49.33,16.32.74,2.81.62,3.27.48,2.99-.96-.19-.99-1.8-2.06-3.82-2.57-5.96-1.48-27.82-1.05-35.89.71-4.07.89-7.6,1.41-7.85,1.16-1-1,.91-2.39,3.99-2.91,21.43-3.59,26.05-4,34.05-3,8.58,1.07,10.22.77,8.74-1.62-1.4-2.27-22.76-2.72-31.78-.67-3.89.89-8.32,2.08-9.83,2.65-1.83.7-3.08.71-3.75.04-2.98-2.98,26.07-8.43,38.14-7.16,3.48.37,6.48.4,6.68.08,2.25-3.65-21.59-5.37-35.31-2.55-6.5,1.34-8.62,1.45-9.75.51-2.16-1.8-1.74-4.88.8-5.89,1.24-.49,4.05-1.62,6.25-2.5l4-1.61-5.99.63c-14.01,1.47-27.76,7.1-46.77,19.14-8.94,5.66-9.28,5.78-16.18,5.74-5.64-.04-8.57-.69-14.56-3.24-19.39-8.26-28.7-21.73-27.79-40.21.54-11.13,3.96-18.98,11.25-25.87,6.5-6.14,12.64-9.29,24.65-12.63,5.17-1.44,14.12-4.41,19.89-6.62l10.5-4.01,15.5-15.79c23.27-23.71,41.56-37.41,65.5-49.08,14.77-7.19,24.85-11.12,38.5-14.99,25.47-7.22,44.15-9.54,70.41-8.75,57.7,1.75,112.13,25.28,153.14,66.2,29.43,29.37,49.83,65.88,60.36,108.03,3.87,15.49,5.18,26.68,5.51,47,.18,11,.16,17.3-.03,14-2.11-35.88-7.48-59.09-20.77-89.7-6.42-14.79-20.08-36.48-31.86-50.59-42.86-51.33-104.84-80.28-171.7-80.2-44.04.05-85.01,12.31-121.06,36.21-14.36,9.52-16.46,11.22-15.6,12.62.38.62,4.44,2.26,9.03,3.66,13.51,4.12,22.19,10.69,27.08,20.49.96,1.93,1.85,3.63,1.98,3.78.13.15,2.65-.93,5.6-2.41,7.67-3.85,17.62-4.41,24.67-1.37,6.42,2.76,13.46,10.11,17.07,17.79,2.37,5.06,2.68,6.92,2.68,16.22s-.31,11.16-2.61,16c-4.97,10.48-15.26,19.61-25.37,22.52-2.76.79-8.17,1.61-12.02,1.82l-7,.38.25,2.89c.71,8.38,4.25,35.21,4.84,36.75.54,1.41,1.23,1.61,3.3.96,1.44-.45,7.15-.82,12.69-.82,9.35,0,10.38.2,14.29,2.79,4.66,3.08,9.64,10.29,12.93,18.71,2.48,6.33,3.47,10.16,6.7,25.83,1.28,6.23,2.62,11.62,2.97,11.97,1.37,1.37,2.26-2.37,2.89-12.12,1.58-24.57,2.38-30.43,4.89-35.91,5-10.92,13.33-16.06,26.25-16.19,14.23-.14,16.68,3.76,14.55,23.2-.71,6.45-1.5,18.47-1.76,26.72-.5,15.71-.39,16.6,5.13,41.75,5.22,23.77,2.89,30.18-11.44,31.48-7.45.68-12.05-.91-14.52-4.99-1.66-2.74-1.96-5.09-1.96-15.24,0-6.6.56-17.4,1.24-24s1.24-19.57,1.25-28.82c0-15.46-.13-16.8-1.73-16.49-1.28.25-1.96,1.8-2.54,5.82-.44,3.02-1.66,9.76-2.71,14.99-1.05,5.23-2.2,11.98-2.55,15-1.7,14.59-6.3,26.23-11.1,28.05-3.76,1.43-4.92,1.19-8.42-1.76-4.47-3.76-9.01-13.79-15.49-34.27-7.59-23.98-10.23-29.36-12.07-24.58-.68,1.78,1.83,17.2,6.04,37.05,5.24,24.72,6.86,41.6,4.5,46.79-1.66,3.63-6.45,5.92-13.28,6.34-4.36.27-7.06-.1-9.33-1.28h0ZM70.81,177.03c3.47-1.77,8.05-6.28,8.05-7.94,0-.35-1.68-1.53-3.74-2.62s-5.38-3.44-7.38-5.24c-3.56-3.19-6.7-8.74-5.58-9.87.31-.31,2.67,1.04,5.23,3,6.87,5.24,14.46,7.79,25.02,8.38,10.31.58,16.11-.43,27.35-4.77,12.67-4.89,24.31-17.03,26.57-27.73,1.64-7.78,4.16-.16,3.25,9.85-.34,3.78-1.47,7.49-3.13,10.33-3.18,5.43-3.19,5.57-.13,5.57,5.75,0,13.4-4.03,18.64-9.81l5.15-5.69-.65,4.34c-.36,2.39-1.54,6.08-2.62,8.21s-1.97,4.1-1.97,4.38,2.51,1.24,5.59,2.14c3.85,1.12,8.31,1.52,14.33,1.28,7.65-.3,9.36-.72,13.66-3.38,18.28-11.26,18.41-42.33.2-49.92-2.13-.89-6.62-1.55-10.5-1.54-8.5.01-15.44,3.02-20.43,8.85-1.95,2.27-3.89,4.14-4.33,4.14-.75,0-.3-4.3,1.09-10.33.58-2.52-.08-3.54-5.97-9.29-11.72-11.43-20.75-13.79-33.47-8.72-7.22,2.88-9.02,3.92-25.86,15.01-6.16,4.05-13.58,8.48-16.5,9.83-5.71,2.65-18.93,5.96-21.03,5.26-.7-.23,1.81-1.96,5.59-3.84,7.96-3.96,11.63-7.03,11.63-9.74,0-1.72-.75-1.53-7.25,1.86-3.99,2.08-10.85,5.26-15.25,7.07-13.17,5.42-18.71,9.64-22.84,17.38-1.73,3.25-2.14,5.73-2.14,13.01,0,7.83.35,9.66,2.69,14.11,7.38,14.04,25.52,22.15,36.74,16.42h0ZM131.06,171.9c1.13-.61,7.97-1.42,15.18-1.81,11.45-.61,12.77-.86,10.31-1.9-7.46-3.16-37.46.13-35.15,3.86.8,1.3,7.13,1.2,9.66-.15h0ZM136.59,164.39c-.33-.33-1.19-.37-1.92-.08-.8.32-.56.56.6.6,1.05.04,1.64-.19,1.31-.53h0ZM301.22,327c-3.08-1.24-5.12-4.6-6.48-10.67-.97-4.33-.88-7.75.47-18.61,2.49-20.01,2.2-36.25-.91-51.05-5.86-27.88-6.21-30.32-4.87-34.2.69-1.99,2.08-4.26,3.09-5.04,5.68-4.35,19.32-4.41,26.65-.11,8.35,4.89,14.91,16.69,18.16,32.67.73,3.57,2.01,9.2,2.84,12.5s1.81,7.3,2.16,8.89c1.34,6.04,2.64.5,4.08-17.48,2.31-28.71,6.24-37.03,19.58-41.46,7.45-2.48,20.03-1.75,23.1,1.33,2.11,2.11,2.26,3.09,2.17,13.49-.05,6.17-.55,16.62-1.09,23.22-1.41,17.03-.1,35.79,3.2,46,1.85,5.73,2.75,11.13,3.16,19,.53,10.24.42,11.19-1.59,13.72-3.48,4.37-13.78,6.18-20.95,3.68-5.64-1.97-6.64-5.39-6.43-21.89.1-7.98.89-25.39,1.74-38.7,1.1-17.13,1.26-25,.52-26.92-.88-2.32-1.23-2.51-2.36-1.3-1.42,1.52-4.88,17.46-6.56,30.2-2.92,22.22-8.41,34.73-15.22,34.73-5.1,0-13.15-12.46-17.78-27.5-4.44-14.42-10.28-31.08-11.68-33.28-3.73-5.89-4.37,1.78-1.33,15.88,2.13,9.89,5.98,30.24,8.59,45.4,2.1,12.19,1.54,20.64-1.59,23.97-3.79,4.03-14.79,5.91-20.67,3.54h0ZM200.32,201.58c-1.88-1.37-1.88-1.46-.07-3.46,1.74-1.92,2.05-1.96,4.85-.51,2.15,1.11,3.3,1.24,4.08.46,1.58-1.58,5.24-1.33,6.73.47,1.06,1.28,1.01,1.82-.27,3.1-1.34,1.34-2.06,1.37-5.16.25-2.81-1.02-3.88-1.04-4.81-.1-1.57,1.57-2.99,1.52-5.35-.21h0ZM235.18,196.74c-3.06-1.4-3.51-3.28-1.4-5.88,1.65-2.04,2.08-2.12,4.93-.93,1.92.8,5.78,1.15,10.01.91,5.43-.31,7.76-.97,11.07-3.16,5.16-3.42,5.91-5.19,3.76-8.93-2.06-3.6-2.1-5.15-.18-6.75,1.24-1.03,2.19-.62,5.5,2.38,3.12,2.82,4.83,3.61,7.75,3.59,3.34-.02,3.94-.43,5.48-3.75,4.9-10.55,20.74-11.87,25.42-2.13,3.85,8.02,3.82,7.88,2.11,10.71l-1.64,2.7-38.3.3-2.33,3.44c-3.46,5.09-7,7.07-11.35,6.36-10.87-1.78-13.21-1.84-14.92-.38-2.77,2.38-3.6,2.59-5.91,1.53h0ZM307.87,177.3c0-.38-1.21-1.96-2.69-3.5-2.33-2.43-3.44-2.8-8.42-2.8-9.46,0-11.25,1.59-5.64,5.01,2.39,1.46,5.04,1.98,10,1.99,3.71,0,6.75-.31,6.75-.69h0ZM204.58,196.37c-.43-.43-2.34-.67-4.26-.55-2.57.17-4.12-.41-5.96-2.25-3.6-3.6-3.38-9.04.59-14.52,3.64-5.03,4.57-4.84,2.36.46-3.03,7.26.68,10.49,12.07,10.49s15.4-3.73,4.56-4.77c-3.97-.38-5.06-.86-5.06-2.24,0-3.62,2.61-4.28,18.78-4.76,8.64-.25,15.88-.62,16.09-.81.21-.19-.59-1.97-1.76-3.96-2.06-3.48-2.07-3.73-.41-6.54.95-1.61,2.05-2.92,2.44-2.92s1.76,1.46,3.03,3.25c2.57,3.6,3.02,10.98.98,16-1.11,2.74-1.16,2.75-10.95,2.75s-9.85.02-12.05,2.99c-2.88,3.89-5.87,5.8-10.18,6.48-1.92.3-4.84.81-6.49,1.12s-3.36.21-3.79-.22h0ZM325.87,190.57c0-.23,3.14-1.87,6.99-3.64l6.99-3.22-.59-3.66c-.48-3.03-.11-4.23,2.13-6.89,3.01-3.58,7.34-6.16,10.34-6.16,1.5,0,2.12.92,2.63,3.94.37,2.17,1.33,4.49,2.13,5.16.81.67,5.16,1.38,9.67,1.58,7.5.33,8.04.23,6.26-1.16-1.07-.84-2.98-1.52-4.25-1.52-3.08,0-2.91-1.05.74-4.55,2.65-2.54,3.8-2.92,8.87-2.92,7.48,0,9.48,1.51,8.78,6.68-.5,3.75-.47,3.79,2.9,3.79s3.4,0,3.38-4.75c-.02-4.31-.68-7.98-2.47-13.81-.41-1.32.08-2.94,1.35-4.5l1.98-2.44,2.33,2.12c1.28,1.17,3.35,2.65,4.58,3.29,2.85,1.47,2.83,2.6-.1,5.53-2.18,2.18-4.75,12.28-2.89,11.35,12.1-6.03,14.15-6.79,18.34-6.79,5.84,0,11.26,3.36,11.71,7.28.25,2.13.85,2.72,2.75,2.72,1.34,0,2.43-.59,2.43-1.31,0-3.87,11.35-10.92,15.21-9.44.75.29,1.94,2.79,2.65,5.57,1.14,4.43,1.09,5.49-.4,8.62-.93,1.96-1.93,3.56-2.22,3.56s-3.23-.98-6.52-2.18l-5.98-2.18-1.95,2.68-1.95,2.68h-25.95c-21.85,0-26.04-.23-26.51-1.46-.49-1.28-.86-1.27-2.87.05-1.68,1.1-4.65,1.46-10.89,1.33-5.28-.12-9.11.25-9.97.96-1.07.89-2.51.68-6.26-.93l-4.87-2.09-2.22,2.58c-1.22,1.42-3.39,3.02-4.82,3.57-2.54.97-11.48,1.41-11.48.57h0ZM419.51,177.69c.41-.41.03-1.46-.85-2.34-2.06-2.06-8.4-1.98-13.41.18-3.47,1.49-3.66,1.76-1.87,2.55,2.32,1.02,15.04.71,16.14-.39h0ZM349.87,175.49c0-2-.5-2.5-2.5-2.5-2.91,0-3.26,1.7-.75,3.61,2.55,1.94,3.25,1.7,3.25-1.11ZM444.62,174.74c-.23-.69-1.5-1.38-2.83-1.53-2.35-.27-2.36-.23-.48,1.25,2.35,1.85,3.87,1.98,3.31.28h0ZM288.86,138.82c0-1.45,4.64-6.85,14.02-16.32l14.02-14.14-6.77-7.56c-6.38-7.12-7.1-7.62-12.49-8.63-10.36-1.93-17.23-9.47-17.27-18.94-.02-6.87,1.46-8.16,7.35-6.4,4.55,1.36,11.44,6.3,14.43,10.33,1.11,1.49,2.2,4.94,2.47,7.79.47,4.93.76,5.35,8.03,11.57,4.15,3.55,7.82,6.46,8.16,6.46.99,0,12.07-9.6,13.44-11.65.68-1.02,1.79-4.4,2.47-7.51,1.04-4.8,2.01-6.4,6.45-10.6,7.55-7.14,9.4-7.97,12.02-5.36l2.1,2.1-5.91,5.98c-3.25,3.29-5.62,6.27-5.26,6.63.36.36,3.42-2.16,6.8-5.59l6.15-6.24,2.08,2.08c1.85,1.85,1.93,2.36.74,4.59-.74,1.38-3.54,4.98-6.23,7.99-4.4,4.94-5.48,5.6-10.86,6.66-5.55,1.09-6.43,1.67-12.46,8.15-3.57,3.84-6.48,7.44-6.48,8.02s6.1,7.08,13.56,14.47c7.46,7.38,13.39,13.92,13.19,14.53s-1.13,1.59-2.05,2.17c-1.41.89-4.02-1.27-16.07-13.29-7.91-7.9-14.55-13.88-14.76-13.3s-6.38,7.16-13.73,14.61c-13.2,13.4-17.14,16.02-17.14,11.39h0ZM354.61,81.06c2.34-2.71,4.25-5.22,4.25-5.57,0-1.27-5.78,3.52-8.4,6.97-4.16,5.45-.76,4.31,4.15-1.4ZM352.64,70.44c-.94-.94-9.78,7.57-9.78,9.42,0,1.02,1.91-.29,5.2-3.59,2.86-2.86,4.92-5.48,4.58-5.83h0Z"/>
  <circle class="st1" cx="711.93" cy="-66.5" r=".98"/>
</svg>