<?xml version="1.0" encoding="UTF-8"?>
<svg width="1300" height="753" version="1.1" viewBox="0 0 1300 753" xmlns="http://www.w3.org/2000/svg">
 <g id="Corona" transform="translate(33.852 25.23)">
  <path d="m295.41 185.5c2.2-0.47931 23.575-3.3678 47.5-6.419 40.769-5.1993 60.289-7.7044 98-12.577 8.525-1.1016 21.575-2.8849 29-3.9629 15.71-2.2808 15-2.2343 15-0.98306 0 0.53463-2.3625 1.6559-5.25 2.4917-4.9274 1.4262-35.965 6.5523-49.25 8.1341-12.492 1.4874-2.8658 1.4652 15.035-0.0347 16.407-1.3747 34.664-1.9623 30.465-0.98043-3.4797 0.81357-48.109 4.5076-65.085 5.3871-18.841 0.9762-78.007 5.8383-103.79 8.5295-15.811 1.65-17.579 1.7132-11.621 0.41501zm638.75 0.39632c0.9625-0.25152 2.5375-0.25152 3.5 0 0.9625 0.25153 0.175 0.45733-1.75 0.45733s-2.7125-0.2058-1.75-0.45733zm-12.333-0.71211c-0.608-0.58576-73.242-6.6495-127.42-10.637-30.436-2.2404-46.715-3.8324-47.499-4.6455-0.27534-0.28531 3.3244-0.24488 7.9994 0.0899 31.735 2.2722 49.979 3.7377 53 4.2575 1.925 0.33119 3.2462 0.32613 2.9359-0.0112-0.31024-0.33737-6.8352-1.5254-14.5-2.6401-38.425-5.588-50.369-8.0219-52.608-10.72-1.0276-1.2382-0.69643-1.3685 2.2329-0.87805 14.169 2.372 23.921 3.8153 40.44 5.9846 41.022 5.3873 66.582 8.6452 79.5 10.133 13.118 1.511 60.985 8.1488 64 8.8749 0.825 0.19869-0.5625 0.41345-3.0833 0.47725-2.5209 0.0638-4.7709-0.0647-5-0.28544zm-417.92-18.007c0-3.0807 0.41227-3.4996 5.75-5.8433 44.964-19.743 146.35-21.552 200.87-3.5858 12.352 4.0703 15.375 5.9991 15.375 9.8081v3.0001l-5.25-2.0756c-8.4147-3.3267-29.238-8.7606-41.722-10.888-27.499-4.6855-69.886-6.3942-98.528-3.9718-23.155 1.9584-53.432 8.1788-69.75 14.33l-6.75 2.5446zm1-12.474c0-2.253-0.89977-6.4636-1.9995-9.357-1.0997-2.8934-1.9997-5.3641-2-5.4904-4e-3 -1.7326 21.585-8.9113 36.96-12.29 24.178-5.3131 37.279-6.44 75.04-6.4547 38.406-0.015 50.991 1.0061 75.5 6.1256 12.71 2.655 34.892 9.4526 37.812 11.587 1.6107 1.1778 1.6274 1.6433 0.22498 6.2668-0.83322 2.747-1.5198 6.9446-1.5258 9.3279-8e-3 3.072-0.37466 4.1832-1.2608 3.8177-15.605-6.4376-42.742-12.498-68.25-15.243-21.719-2.3369-61.474-2.3602-82.5-0.0482-25.113 2.7613-52.8 9.06-66.25 15.072-1.5092 0.67457-1.75 0.21848-1.75-3.314zm17.912-10.512c1.7764-2.1405-1.374-4.9643-3.9815-3.5688-2.2337 1.1954-2.4067 2.0866-0.73055 3.7628 1.5875 1.5875 3.2918 1.5173 4.7121-0.19405zm189.76-0.18349c0.80243-2.0911-1.8664-4.6674-3.9906-3.8522-1.6718 0.64153-2.2777 3.4963-1.0109 4.7631 1.2462 1.2462 4.3937 0.673 5.0015-0.91087zm-169.13-5.489c0.92034-1.4892-0.14673-2.2988-2.0614-1.5641-0.88358 0.33906-1.3264 1.0696-0.98412 1.6235 0.81058 1.3115 2.2151 1.2841 3.0455-0.0595zm146.21-1.5169c-0.95295-0.95296-2.8635 0.5906-2.1533 1.7397 0.42212 0.683 0.98146 0.66575 1.6996-0.0524 0.58876-0.58876 0.79291-1.348 0.45366-1.6873zm-22.854-1.3309c1.9024-1.2046 0.62932-4.0856-1.8053-4.0856-2.5805 0-3.5734 1.713-2.054 3.5438 1.3948 1.6807 1.9399 1.7572 3.8594 0.54181zm-98.094-2.2681c0.48282-2.5475-3.2738-4.2026-5.1898-2.2866-0.83983 0.83983-1.2636 2.2133-0.9417 3.0521 0.79044 2.0599 5.7125 1.4453 6.1315-0.76556zm23.119-2.5675c-0.0869-5.2284-0.57238-4.8054-1.1478 1-0.20442 2.0625-0.012 3.75 0.42752 3.75 0.43956 0 0.76367-2.1375 0.72025-4.75zm41.961 3c-0.0651-0.9625-0.46184-3.1-0.88169-4.75-0.6814-2.6779-0.77607-2.49-0.88169 1.75-0.0651 2.6125 0.33169 4.75 0.88169 4.75s0.94676-0.7875 0.88169-1.75zm11.29-2.25c-0.2098-2.2-0.55919-4-0.77643-4-0.21723 0-0.39496 1.8-0.39496 4s0.34939 4 0.77643 4c0.42703 0 0.60476-1.8 0.39496-4zm-28.501-3.4167c-0.78999-2.0587-5.0473-2.039-6.7654 0.0313-1.1498 1.3854-1.0008 1.8893 1.0499 3.5499 2.3646 1.9148 2.4107 1.9144 4.3565-0.0313 1.1284-1.1284 1.7076-2.6414 1.359-3.5499zm-27.977 0.68575c-0.25354-0.97297-0.47766-0.41903-0.49804 1.231-0.0204 1.65 0.18706 2.4461 0.46099 1.769 0.27392-0.67703 0.29059-2.027 0.0371-3zm-90.519 3.6383c-0.64581-1.0341-1.1742-2.3194-1.1742-2.8562 0-1.5568 13.685-7.6665 23.5-10.492 11.118-3.2 30.667-6.9359 48.5-9.2683 19.063-2.4933 69.411-2.4444 90 0.0874 28.27 3.4764 57.15 10.409 68.25 16.383 5.0218 2.7027 5.3492 3.2504 3.7399 6.2575-0.96813 1.809-1.3942 1.7484-10.25-1.4568-10.399-3.7638-29.635-8.6423-43.492-11.03-25.883-4.4601-72.929-6.1846-99.248-3.6382-24.454 2.366-51.199 7.9512-69.076 14.426-9.2 3.3319-9.6219 3.3942-10.75 1.5878zm-5.0254-12.805c-1.9959-6.6617-14.143-32.466-16.454-34.953-1.207-1.299-4.1071-3.6856-6.4446-5.3036s-4.25-3.2933-4.25-3.7228c0-1.1062 9.0047-5.0541 12-5.2611 6.3278-0.43739 8.3224 0.22531 12.126 4.0291 2.14 2.14 4.1386 3.49 4.4414 3 0.81012-1.3108 6.839-1.0844 8.2325 0.30919 2.7318 2.7318 0.64142 7.4537-4.0331 9.1102-4.5578 1.6151 6.0935 15.02 15.935 20.053 2.4537 1.2551 3.7428 1.3911 5.5183 0.58206 5.7306-2.611 9.7801-13.996 9.7801-27.495 0-7.5835-0.15925-8.2019-2.3715-9.2099-3.1893-1.4531-4.2612-5.8839-2.0221-8.3581 3.693-4.0807 11.327-0.73824 10.039 4.3952-0.7592 3.0249 4.235 7.9878 17.239 17.131 12.336 8.6738 21.192 13.04 24.675 12.166 3.1905-0.80076 11.663-9.4152 15.226-15.481 3.6034-6.1347 7.2051-16.85 7.2103-21.45 4e-3 -3.2925-0.25175-3.7475-1.7456-3.1086-4.1701 1.7834-7.0702 1.6454-9.151-0.43547-2.8829-2.8829-2.6678-6.5064 0.53589-9.0264 3.3106-2.6041 6.3832-2.6328 9.6159-0.0899l2.5205 1.9826 1.1116-4.4145c1.1203-4.4492 8.6885-16.575 10.78-17.272 1.459-0.48633 10.951 13.689 11.822 17.655 0.65673 2.9901 0.71295 3.0147 3.5412 1.5521 3.9074-2.0206 6.5926-1.8668 8.9732 0.51384 2.6547 2.6547 2.53 6.1534-0.31445 8.8257-2.5203 2.3677-5.644 2.8158-7.3984 1.0614-4.2769-4.2769-2.7875 8.2936 2.248 18.972 5.5664 11.805 14.412 21.14 20.032 21.14 5.1709 0 24.33-12.042 34.511-21.69 4.7075-4.4613 5.5132-5.7318 5.1602-8.1369-0.54793-3.7332 1.9408-6.1726 6.2976-6.1726 6.0159 0 7.3708 7.7183 1.8004 10.256l-2.6082 1.1884 0.62692 9.5664c0.34481 5.2615 1.3252 11.918 2.1787 14.792 1.7551 5.91 6.7083 12.197 9.6093 12.197 5.1671 0 16.37-9.2906 20.25-16.793 2.0814-4.025 2.0274-5.2069-0.23804-5.2069-2.165 0-5.155-3.0009-5.155-5.1738 0-3.726 6.1529-6.1915 8.925-3.5762 1.0615 1.0014 1.4206 0.98808 1.8057-0.0671 0.26439-0.72443 1.4975-2.4992 2.7403-3.944 3.2006-3.7209 13.273-4.4304 19.294-1.359 5.0789 2.5911 6.0819 4.0822 3.6258 5.3904-1.0397 0.55382-4.1404 3.3498-6.8904 6.2134-4.8278 5.0272-6.8239 8.758-18.042 33.721-2.5008 5.565-2.6295 5.6767-5.261 4.5654-5.3674-2.2667-5.3712-2.5619-0.18034-13.862 5.6888-12.384 7.7144-19.498 3.067-10.771-4.8726 9.15-15.278 16.791-22.933 16.841-9.5381 0.0626-16.234-8.0756-18.494-22.478-0.25891-1.65-0.34286 0.825-0.18654 5.5 0.15631 4.675 0.61681 9.5125 1.0233 10.75 0.60502 1.8418 0.36734 2.25-1.3101 2.25-2.395 0-3.2625-2.1507-4.0956-10.153l-0.58847-5.6533-10 8.984 3.5-0.60222c1.925-0.33122 4.0625-1.3572 4.75-2.2799 1.0875-1.4596 1.25-1.2544 1.25 1.5792 0 1.7913 0.50144 4.1938 1.1143 5.339 1.0515 1.9648 0.92476 2.0437-2.25 1.4005-1.8504-0.37488-6.1768-1.219-9.6143-1.8759s-6.2361-1.4292-6.2191-1.7163c0.017-0.28707 2.1545-2.097 4.75-4.022s7.5316-6.2946 10.969-9.7103c5.0039-4.9722 6.25-6.8323 6.25-9.33v-3.1196l-5.75 5.1412c-10.258 9.1718-25.356 18.162-32.933 19.608-4.3337 0.82755-12.16-3.5096-17.946-9.9448-5.2965-5.891-11.456-18.224-12.142-24.312-0.62206-5.5189-1.7791-6.2367-4.947-3.0688-2.3531 2.3531-2.4321 2.7532-1.2579 6.3733 1.5483 4.7735 6.6166 14.934 11.351 22.755 1.9619 3.241 3.3286 6.2785 3.0372 6.75-0.78494 1.2701-34.412 1.0967-34.412-0.1774 0-0.56908 2.105-4.7316 4.6777-9.25s6.0792-11.59 7.7921-15.715l3.1144-7.5-6.4789-5.605-1.0787 4.3025c-4.3708 17.434-13.382 29.979-24.987 34.786-2.6476 1.0967-3.8362 0.96264-9.1776-1.0349-7.2467-2.7101-19.046-10.169-27.165-17.172-3.1913-2.7528-6.0845-4.723-6.4292-4.3783-1.9406 1.9406 10.367 17.359 17.255 21.616 1.9124 1.1819 3.4771 2.4593 3.4771 2.8385s-4.7287 1.6102-10.508 2.7354l-10.508 2.0458 0.64191-7.697c0.35305-4.2334 0.29294-9.4385-0.13357-11.567l-0.77548-3.8699-1.3113 6.8372c-1.7499 9.1238-4.8393 15.206-9.2443 18.199-6.2641 4.2566-15.191 2.7199-21.896-3.7689-1.7793-1.722-3.4603-2.9057-3.7357-2.6303s1.0564 2.9446 2.9594 5.9316c3.7011 5.8093 4.1028 6.931 2.4819 6.931-0.56619 0-3.9146-5.9625-7.441-13.25-7.8543-16.232-8.6035-14.534-1.0311 2.3363 3.0242 6.7376 5.3867 12.342 5.25 12.455-0.9135 0.75232-6.814 3.459-7.5405 3.459-0.49026 0-1.4169-1.7539-2.0591-3.8976zm49.781-17.411c-0.0386-1.755-0.45702-4.091-0.92971-5.191-0.61696-1.4358-0.87926-0.36113-0.92971 3.809-0.044 3.6342 0.30411 5.5776 0.92971 5.191 0.55-0.33992 0.96837-2.054 0.92971-3.809zm77.418-9.0468c-2.3322-3.7827-4.5253-8.1751-4.8736-9.7609s-0.93502-2.8744-1.3038-2.8635c-0.36879 0.0109-2.6717 4.1734-5.1175 9.25s-4.5832 9.4552-4.7496 9.7302 4.3296 0.50489 9.9911 0.51087l10.294 0.0109zm-122.85-12.644c0.33992-0.55 0.14148-1-0.44098-1s-1.059 0.45-1.059 1 0.19844 1 0.44098 1 0.7191-0.45 1.059-1zm246.63-2.75c1.2439-1.5861 1.2085-1.6214-0.37756-0.37756-0.9625 0.75485-1.75 1.5424-1.75 1.75 0 0.82304 0.82119 0.2933 2.1276-1.3724zm-47.128-13.25c0-0.55-0.45-1-1-1s-1 0.45-1 1 0.45 1 1 1 1-0.45 1-1zm24.475 52.959c-0.32411-0.52441 1.4615-3.471 3.968-6.548s4.5573-5.3382 4.5573-5.025c0 0.31323-1.2114 3.0395-2.692 6.0584-2.6667 5.4374-4.6956 7.3554-5.8332 5.5146z"/>
 </g>
 <path id="Mimmo" d="m930.45 375.53c-28.315-3.908-50.417-22.643-57.908-49.087-5.8631-20.695-2.5032-41.718 9.298-58.175 9.1938-12.822 24.963-23.053 40.686-26.398 10.079-2.1443 29.188-2.134 39.5 0.0211 23.164 4.8414 42.781 21.544 50.224 42.761 3.4995 9.9763 4.3236 27.949 1.8078 39.424-5.2702 24.04-24.136 42.986-49.051 49.259-8.9855 2.2623-26.162 3.353-34.556 2.1944zm27.978-9.0205c4.8559-2.4773 10.205-7.8501 13.625-13.686 8.251-14.079 9.6344-47.78 2.9136-70.972-3.6569-12.619-7.1458-19.115-13.99-26.048-4.7734-4.8351-7.2289-6.4978-11.446-7.75-11.713-3.4783-21.521-1.2112-29.558 6.8321-9.6488 9.656-12.987 21.208-12.881 44.574 0.1589 35.066 12.17 61.539 31.132 68.62 4.9977 1.8662 14.991 1.0898 20.204-1.5697zm-566.64 5.2001c-0.94092-2.4506 0.62347-3.9767 4.7533-4.6371 5.9771-0.95579 9.6437-3.1341 10.409-6.1842 0.36459-1.4526 0.19185-9.9058-0.38387-18.785-1.1274-17.388-4.0027-69.221-4.1129-74.144-0.0804-3.591-0.12946-3.4884-5.2609 11-17.925 50.61-30.212 84.801-31.894 88.75-1.9594 4.6002-2.1568 4.75-6.2572 4.75h-4.234l-7.7833-19.75c-7.2678-18.442-32.414-80.301-34.451-84.75-0.61108-1.3343-0.93846 2.5221-0.98361 11.587-0.0372 7.4727-0.36373 28.424-0.72557 46.558l-0.6579 32.971 2.9079 3.2401c2.3118 2.5759 4.1892 3.4823 9.1579 4.4213 5.4854 1.0367 6.25 1.459 6.25 3.4524v2.2712h-46v-2.3865c0-2.0741 0.61031-2.478 4.6626-3.0856 3.1093-0.46627 5.5729-1.6095 7.3951-3.4317 3.3799-3.3799 3.4139-3.77 5.4687-62.742 0.99049-28.428 1.1724-44.016 0.53312-45.698-1.1705-3.0787-4.3428-5.2262-9.0595-6.1329-6.3605-1.2227-7-1.592-7-4.0423v-2.384l50.138 0.40288 34.323 82.639 1.6017-3.8193c0.88092-2.1006 7.5871-20.559 14.903-41.019 12.511-34.99 13.456-37.228 15.918-37.678 1.4392-0.26302 12.967-0.39809 25.617-0.30017 22.274 0.17243 23 0.24118 23 2.178 0 1.6332-1.1761 2.2803-6.4132 3.5283-11.084 2.6414-10.603-0.34355-7.5796 47.011 4.5612 71.448 3.911 65.064 6.8869 67.623 4.7556 4.0906 14.016 5.4447 22.106 3.2325 8.0943-2.2134 7.5 2.4536 7.5-58.895 0-61.402 0.54125-57.182-7.5-58.473-8.196-1.3159-8.5-1.4589-8.5-3.9965v-2.4314l32.738 0.0387c18.006 0.0213 33.039 0.22444 33.406 0.45142 0.36726 0.22697 0.4354 1.3011 0.15143 2.387-0.35285 1.3493-1.6686 2.1587-4.1561 2.5566-7.0063 1.1208-8.2056 1.5328-10.165 3.4925-1.9153 1.9154-1.9746 3.5307-1.9746 53.85 0 28.531 0.28516 53.301 0.63369 55.043 0.76379 3.8189 4.3305 5.9347 11.42 6.7743 4.3661 0.5171 4.9462 0.86271 4.9462 2.9465v2.3607l-33.25 0.0264c-18.288 0.0145-47.82 0.12702-65.627 0.25-25.146 0.17368-32.484-0.0556-32.857-1.0264zm133.73-1.513c0-1.8652 0.90525-2.5243 5.1506-3.75 8.6022-2.4836 8.603-2.4865 9.8344-32.987 0.58844-14.575 1.5094-37.146 2.0465-50.158 0.95431-23.116 0.87251-25.065-1.2378-29.493-1.0792-2.2641-6.0862-4.8126-11.544-5.8756-2.3188-0.45165-3.25-1.1833-3.25-2.5536 0-1.6863 0.76235-1.9239 6.25-1.9479 3.4375-0.015 12.429-0.29296 19.981-0.6176 7.5521-0.32463 16.102-0.29312 19 0.07l5.269 0.66026 4.664 11.707c2.5652 6.439 9.7954 24.082 16.067 39.207 6.2718 15.125 11.759 28.4 12.193 29.5 0.96286 2.4369-0.54779 6.2532 16.798-42.436 12.354-34.677 13.529-37.488 15.952-38.136 1.4386-0.38474 13.013-0.7674 25.72-0.85035l23.105-0.15081v2.4062c0 2.1459-0.65597 2.5353-6.0626 3.599-3.5341 0.6953-6.9318 2.0619-8.1466 3.2767-1.9718 1.9718-2.0495 2.7892-1.4444 15.187 1.5198 31.141 5.9016 91.327 6.8278 93.783 2.7274 7.2334 22.22 8.5579 25.86 1.7571 1.9565-3.6558 5.7335-102.79 4.0817-107.13-1.3406-3.5243-4.431-5.4622-10.936-6.8571-4.574-0.98093-5.2523-1.4285-4.987-3.2903 0.30506-2.1406 0.47202-2.1549 25.213-2.1549h24.906l9.3746 22.5c5.156 12.375 12.826 30.938 17.044 41.25 4.218 10.313 7.9605 18.413 8.3167 18 0.5974-0.69215 25.198-69.001 27.911-77.5 0.71485-2.2396 1.8706-3.803 2.8694-3.8816 0.91985-0.0724 12.36-0.26016 25.422-0.41732l23.75-0.28573v2.3499c0 2.4123-0.65797 2.7891-7 4.0082-7.0184 1.3492-8 2.6776-8 10.827 0 4.0174 0.64505 17.17 1.4334 29.227s1.935 30.698 2.548 41.423c1.619 28.325 1.8371 29.909 4.4795 32.552 2.1944 2.1944 8.1292 4.4309 11.789 4.4425 1.1985 4e-3 1.75 0.79342 1.75 2.5056v2.5h-64v-2.3722c0-2.0044 0.63645-2.474 4.105-3.0286 5.7997-0.9274 9.7641-3.2292 10.481-6.0854 0.33818-1.3474-0.32881-19.902-1.4822-41.232-2.6205-48.462-3.101-54.399-4.1906-51.782-0.89765 2.1558-32.356 89.401-35.516 98.5-1.9074 5.4914-1.9174 5.5004-6.4036 5.7604l-4.4931 0.26037-15.872-39.76c-8.7296-21.868-18.405-45.984-21.5-53.591l-5.628-13.831-0.84157 44.32c-0.46287 24.376-0.46287 46.108 0 48.292 1.0482 4.9469 5.5284 8.2399 12.462 9.1597 4.2855 0.56849 4.8795 0.93597 4.8795 3.0185v2.3712h-107v-2.2999c0-2.0002 0.76267-2.4574 5.853-3.5088 3.3712-0.6963 6.627-2.0641 7.6783-3.2258 2.0746-2.2924 2.0947-3.7613 0.47367-34.465-0.55172-10.45-1.4726-28-2.0465-39-1.2118-23.228-1.3494-24.612-2.2374-22.5-1.3414 3.1895-35.625 98.658-37.258 103.75-0.24069 0.75068-2.164 1.25-4.8148 1.25h-4.414l-5.6194-14.25c-3.0907-7.8375-12.706-31.647-21.367-52.911l-15.748-38.661-0.61166 16.161c-0.33641 8.8885-0.67391 30.019-0.75 46.956l-0.13834 30.795 2.3366 2.3366c2.0534 2.0534 9.8834 4.5724 14.213 4.5724 0.88083 0 1.4508 0.98214 1.4508 2.5v2.5h-45z"/>
 <g id="Halal" transform="translate(-43.674)">
  <path d="m1126.4 698.63c-8.0337-1.304-13.319-2.9814-23.467-7.4477-18.015-7.9289-32.702-20.267-43.585-36.615-10.684-16.049-14.464-29.236-14.426-50.334 0.054-30.209 11.492-53.494 35.77-72.82 8.3524-6.6485 24.903-15.155 33.708-17.325 28.597-7.0477 55.174-3.3491 79.073 11.004 15.852 9.5204 25.341 18.915 34.323 33.979 10.302 17.278 13.69 30.906 12.803 51.5-0.6435 14.947-4.0229 26.901-11.114 39.315-13.408 23.472-33.287 38.626-60.691 46.265-7.6005 2.1187-12.065 2.6824-23.393 2.9538-7.7 0.1844-16.25-0.03-19-0.4762zm30-5.5732c11.31-1.7002 14.191-2.5074 23.837-6.6776 26.866-11.616 44.978-31.843 53.286-59.511 3.6715-12.227 3.8703-29.97 0.4682-41.797-8.166-28.387-25.992-49.549-52.197-61.965-20.127-9.5359-46.81-11.023-69.395-3.8667-8.527 2.7019-23.747 11.031-30.825 16.87-13.75 11.341-25.186 28.99-29.818 46.016-2.9421 10.814-3.1705 31.708-0.4586 41.946 4.3346 16.364 16.511 36.024 28.737 46.402 23.045 19.561 47.79 26.878 76.365 22.582zm-27.023-3.4044c-31.004-4.9797-58.154-26.176-70.552-55.08-11.435-26.66-6.0652-60.767 13.338-84.72 17.48-21.58 45.626-33.575 75.132-32.019 24.464 1.2901 42.522 9.5762 59.673 27.382 9.0394 9.3845 12.701 14.598 17.976 25.598 10.25 21.37 9.8394 47.397-1.0926 69.331-14.9 29.895-44.723 48.895-78.43 49.966-6.0621 0.1926-13.282-0.013-16.045-0.4566zm25.733-2.5577c10.55-1.8398 25.386-6.6309 31.59-10.202 20.041-11.535 34.929-30.406 40.884-51.821 0.7647-2.75 1.6497-10.85 1.9666-18 0.5004-11.288 0.2905-14.12-1.5934-21.5-2.33-9.1276-8.2124-21.694-13.595-29.043-1.8302-2.4987-7.2952-8.3586-12.144-13.022-21.704-20.873-52.579-28.376-83.93-20.399-8.2248 2.0929-24.793 10.406-31.586 15.847-8.0419 6.4426-17.583 18.003-22.48 27.238-6.2779 11.839-8.4077 21.202-8.3892 36.879 0.022 18.891 3.6595 31.646 12.906 45.263 13.744 20.239 34.61 34.043 57.661 38.146 13.699 2.438 17.752 2.5247 28.709 0.6139zm-17.878-3.7098c-1.8269-2.0186-1.049-3.5894 2.4334-4.9134 1.8508-0.7037 2.7816-0.6345 3.3266 0.2474 0.596 0.9643 1.0737 0.9614 2.2489-0.014 1.2243-1.0161 1.601-0.8952 2.0989 0.6734 0.6809 2.1453-0.186 5.1282-1.5456 5.3185-4.2093 0.5892-7.2655 0.1209-8.5622-1.312zm-9.6641 0.5203c-0.3667-0.3666-0.6667-1.9416-0.6667-3.5 0-2.9032 0.7753-3.2684 4.7028-2.2153l2.2029 0.5906-2.1409 2.8957c-2.2023 2.9787-2.9447 3.3825-4.0981 2.229zm26.453-2.7055c-1.9606-2.0869-2.0318-2.4477-0.5926-3 2.731-1.048 3.3587-0.7485 4.9725 2.3722 1.454 2.8117 1.4351 3-0.3 3-1.0183 0-2.8542-1.0675-4.0799-2.3722zm-32.814-1.6278c1.2613-3.3415 1.9184-3.6394 3.5887-1.6267 1.6485 1.9863 0.2703 4.6267-2.4149 4.6267-2.1474 0-2.2282-0.2065-1.1738-3zm40.265 1.4286c-0.8643-0.8643-1.5714-2.1877-1.5714-2.941 0-2.1963 1.9535-2.7848 2.6591-0.801 0.3547 0.9974 1.3212 2.6009 2.1479 3.5634 1.3421 1.5627 1.3335 1.75-0.081 1.75-0.8709 0-2.2907-0.7071-3.155-1.5714zm-47.019-1.6786c-0.4276-1.3894-0.3801-4.75 0.067-4.75 1.4592 0 5.3804 2.5898 5.3804 3.5535 0 2.2412-4.8014 3.2957-5.4475 1.1965zm52.607-0.3511c-2.174-1.5227-2.2018-1.6943-0.5676-3.5 2.2586-2.4957 2.859-2.4004 4.2607 0.6761 1.932 4.2402 0.2094 5.5573-3.6931 2.8239zm8.9529-3.4811c-2.2953-0.9183-2.3197-1.0308-0.6294-2.8985 1.7373-1.9198 1.78-1.9166 3.5455 0.2638 2.7331 3.3751 1.5672 4.4285-2.9161 2.6347zm-74.419-1.2756c-0.2865-0.7468-1.9893-1.6515-3.7839-2.0104-2.865-0.573-3.061-0.8037-1.6076-1.8922 0.9104-0.6818 2.2842-2.1128 3.0528-3.18 1.3378-1.8575 1.4712-1.7979 3.1226 1.3956 1.3321 2.5759 1.9317 3.0181 2.6315 1.9404 0.7289-1.1222 1.2832-0.9091 2.8297 1.0882 1.3993 1.807 1.6016 2.6885 0.7427 3.2347-1.9561 1.244-6.4309 0.8749-6.9878-0.5763zm31.807 0.2953c-14.509-2.2051-27.333-7.6694-36.652-15.617-6.6631-5.6825-9.9566-9.4628-16.099-18.478-8.7604-12.858-12.906-29.743-11.008-44.842 2.1258-16.918 8.5526-30.461 19.694-41.5 15.392-15.25 33.987-22.211 56.565-21.175 14.624 0.671 23.486 3.3354 35 10.523 16.842 10.514 29.63 28.532 33.658 47.424 3.8525 18.071-1.2175 39.211-13.111 54.667-16.213 21.07-43.552 32.721-68.047 28.998zm26.861-3.4628c7.6283-1.5715 21.358-8.4942 28.421-14.33 6.7558-5.5821 14.783-15.742 18.628-23.577 7.2028-14.679 8.573-35.387 3.33-50.33-7.9707-22.717-28.75-41.332-52.24-46.8-10.994-2.5591-29.504-1.6047-40.401 2.0833-19.338 6.5446-36.127 22.575-43.065 41.117-5.9548 15.916-4.5333 40.462 3.1481 54.362 17.424 31.53 46.555 44.814 82.179 37.475zm-61.694-26.141c-0.3667-0.3666-0.6667-4.8666-0.6667-10 0-8.6666 0.1429-9.3333 2-9.3333 1.6667 0 2 0.6667 2 4v4h4c3.5639 0 4-0.2636 4-2.4182 0-3.4521 0.9947-5.5818 2.607-5.5818 1.0985 0 1.393 2.1298 1.393 10.073 0 9.0571-0.1765 10.039-1.75 9.7318-1.3035-0.2544-1.7652-1.3575-1.8097-4.3233-0.059-3.949-0.094-3.9843-4.25-4.2893l-4.1903-0.3075v4.5575c0 4.3067-1.3462 5.878-3.3333 3.8908zm20.888-3.0833c0.7264-2.0625 2.4325-6.45 3.7915-9.75 3.5511-8.6228 5.1297-8.151 9.8494 2.9438 2.0925 4.9191 3.8046 9.2316 3.8046 9.5833 0 1.5403-3.3011 0.443-4.5914-1.5262-0.8798-1.3428-2.2722-2.0712-3.6639-1.9167-1.2346 0.137-3.0019 0.2866-3.9273 0.3325-0.9254 0.046-1.9683 0.9833-2.3174 2.0833s-1.4518 2-2.4504 2c-1.6662 0-1.707-0.3087-0.4951-3.75zm9.9005-6.5c-1.1158-3.6931-1.9633-3.8909-3.1542-0.736-1.0626 2.8151-0.9851 2.986 1.3535 2.986 2.1071 0 2.3782-0.3387 1.8007-2.25zm12.545 0.1906c0-9.0672 0.177-10.054 1.75-9.754 1.4405 0.2742 1.8384 1.7463 2.25 8.3233 0.3366 5.379 0.9085 8.0228 1.75 8.0901 0.6875 0.055 2.6375 0.1675 4.3333 0.25 5.4426 0.2648 2.5855 2.2963-3.8603 2.7448l-6.223 0.4331zm16 8.6977c0-0.7489 1.35-4.339 3-7.978s3-7.3154 3-8.1697c0-2.1547 2.8897-3.0571 4.4106-1.3773 1.631 1.8015 7.5894 15.458 7.5894 17.396 0 2.3413-2.6033 1.7455-4.408-1.0088-1.2023-1.8348-2.5205-2.5-4.9545-2.5-2.5671 0-3.5738 0.5649-4.4555 2.5-1.2029 2.64-4.182 3.4509-4.182 1.1383zm10.443-8.8883c-0.3804-1.2375-0.8608-2.4375-1.0674-2.6667-0.5441-0.6032-1.0351 0.1167-1.819 2.6667-0.5676 1.8467-0.3089 2.25 1.4432 2.25s2.0108-0.4033 1.4432-2.25zm12.033 9.2154c-0.6019-0.9804 0.1056-17.881 0.7766-18.552 0.3634-0.3634 1.3552-0.3943 2.2039-0.069 1.2136 0.4657 1.5431 2.3072 1.5431 8.6235v8.0314h4c6.3652 0 4.6303 1.7873-2.0977 2.1612-3.3537 0.1863-6.2454 0.098-6.4259-0.1958zm-56.476-28.923c-2.3553-0.7143-2.2105-0.8863 2.5-2.9706 7.7534-3.4308 15.5-9.6864 15.5-12.517 0-1.3091-1.4625-5.2038-3.25-8.6548-2.6608-5.137-3.8383-6.4269-6.4948-7.1147-4.3866-1.1356-6.6679-4.7723-5.822-9.2811 0.7684-4.0958 2.0406-4.3336 6.6318-1.2396 5.0245 3.3861 8.7093 9.3796 10.755 17.494 1.0065 3.9921 2.1734 6.9171 2.5931 6.5 1.5821-1.572 3.7929-8.1431 6.6476-19.758 3.3699-13.712 4.7984-17.705 6.0554-16.928 0.4861 0.3005 0.9093 8.0573 0.9403 17.237 0.086 25.279 1.4702 27.417 16.3 25.167 11.355-1.7231 12.139-2.4019 5.2725-4.5664-4.7467-1.4963-6.2785-1.6025-8.8902-0.6167-4.2068 1.5879-5.4343 0.1932-3.1834-3.6171 3.9555-6.6962 10.186-6.8063 24.081-0.4254 10.512 4.8274 11.684 6.0608 9.1076 9.5848-1.4667 2.0058-22.72 7.3994-32.79 8.3216-5.919 0.542-6.8095 0.3718-9.3024-1.7785-3.2207-2.778-4.5815-7.7063-4.6602-16.878l-0.056-6.5-2.9906 7c-7.3182 17.129-17.793 24.925-28.946 21.542zm-29.73-1.525c-3.9193-1.7038-7.2609-6.8684-7.266-11.23 0-3.8279 3.7316-14.288 5.1033-14.288 0.593 0 0.5654 0.7436-0.072 1.9343-0.5694 1.0638-1.0352 3.9275-1.0352 6.3636 0 3.4924 0.5783 5.0077 2.7339 7.1632 2.5616 2.5617 3.1883 2.7109 9.9492 2.3695 5.4011-0.2727 7.9197-0.8964 10.016-2.4802 2.7926-2.1097 2.8001-2.1474 2.5912-12.983-0.1152-5.977-0.7121-15.142-1.3264-20.367-1.0985-9.3425-0.3912-15 1.8751-15 0.4889 0 2.1446 1.8121 3.6794 4.0269 2.4881 3.5903 2.65 4.2896 1.4932 6.4511-0.9163 1.7121-1.329 7.8516-1.4046 20.897-0.098 16.97-0.2746 18.703-2.1657 21.299-4.6454 6.3775-16.404 9.2202-24.172 5.8435zm86.437 58.856c-0.7289-0.7289 1.9943-6.377 3.0692-6.3654 0.3984 0 1.2854 1.2161 1.9712 2.6929 0.996 2.1445 0.996 2.8445 0 3.4769-1.5043 0.9552-4.177 1.059-5.0404 0.1956zm7.2935-5.6121c0-1.0409 0.4923-2.8125 1.094-3.9368 1.0515-1.9647 1.1682-1.9223 3 1.0899 1.0483 1.7238 1.906 3.2972 1.906 3.4965s-1.35 0.5605-3 0.8026c-2.4317 0.3569-3 0.082-3-1.4522zm-96.436 0.3416c-0.8658-1.4008 0.5669-7.1401 1.6199-6.4893 1.8702 1.1558 2.978 5.6675 1.6054 6.5383-1.6804 1.0662-2.5442 1.053-3.2253-0.049zm-5.0755-5.1159c-1.5883-1.7551-1.6474-2.3205-0.472-4.5167 1.4433-2.6968 1.9747-2.4545 3.738 1.704 1.5971 3.7664-0.6509 5.7024-3.266 2.8127zm107.55 0.2632c0.055-2.7238 2.5601-6.7135 3.3811-5.3851 1.2125 1.9619 2.5835 1.2376 2.5835-1.3649 0-1.3914 0.5795-2.5 1.307-2.5 0.7188 0 1.7513-1.2375 2.2945-2.75l0.9876-2.75 1.0681 3.0052c1.5098 4.248 0.086 7.3963-3.6872 8.1508-2.2331 0.4466-2.9178 1.0376-2.4909 2.15 0.6537 1.7037-1.0491 3.1553-3.7291 3.1787-1.0191 0.01-1.7352-0.7156-1.7146-1.7347zm-113.64-6.5354c-1.1569-0.668-1.9372-1.686-1.7342-2.2623 0.2031-0.5762-0.9879-2.3479-2.6466-3.9371-3.7224-3.5663-3.7658-4.2634-0.2659-4.2716 3.24-0.01 4.2011 1.1755 4.2701 5.2564l0.051 3 2.7784-5 1.0754 2.8151c2.1054 5.5117 0.932 6.9749-3.528 4.3995zm127.1-4.7129c-0.3846-0.6223-0.401-2.7211-0.036-4.664 0.6021-3.2097 0.8168-3.3985 2.3491-2.0656 0.9275 0.8068 2.2177 1.6382 2.867 1.8474 0.7075 0.2281 0.046 1.5091-1.6499 3.197-1.8713 1.8621-3.0674 2.4332-3.5297 1.6852zm-137.27-9.5522c-2.8739-2.0129-2.8454-3.4495 0.069-3.4495 1.265 0 2.8721-0.5625 3.5713-1.25 1.025-1.0078 1.209-0.5868 0.95 2.173-0.3781 4.0286-1.5357 4.6658-4.5899 2.5265zm141.25-1.521c-0.371-1.6893-0.4759-3.2702-0.233-3.5131s2.1874 0.2878 4.3211 1.1793l3.8795 1.621-2.3367 1.8921c-3.3093 2.6797-4.8544 2.3561-5.6309-1.1793zm-144.23-4.6029c-2.392-1.6686-3.0449-4.3256-1.0629-4.3256 0.6529 0-0.022-1.2621-1.5-2.8047-3.2277-3.369-3.3501-4.1953-0.6214-4.1953 1.1362 0 2.9971-0.4984 4.1355-1.1076 1.9205-1.0279 2.0204-0.9017 1.3867 1.75-0.3756 1.5717-0.9309 3.6895-1.2341 4.7063-0.4494 1.5071-0.1634 1.7257 1.5475 1.1826 1.6506-0.5238 2.0987-0.2421 2.0987 1.3195 0 2.4452-0.9918 5.1673-1.857 5.0968-0.3536-0.029-1.6555-0.7588-2.893-1.622zm147.36-0.9074c-1.3508-3.52-0.752-4.3202 2.5288-3.3792 4.0508 1.1617 4.4136 1.5941 2.8843 3.4368-1.6476 1.9853-4.6414 1.9534-5.4131-0.058zm2.4359-6.3381c-1.207-2.2552-1.3929-6.0949-0.2929-6.0483 0.4125 0.017 1.6038 0.6781 2.6473 1.468s2.281 1.199 2.75 0.9092c2.0492-1.2665 0.5508 2.2649-1.6359 3.8554-2.3347 1.6981-2.4648 1.6912-3.4685-0.1843zm-154.55-7.0862c-2.0787-2.2969-1.9862-2.4746 1.7555-3.3723 2.86-0.6861 3.4572 0.3719 2.143 3.7966-0.8033 2.0935-1.7092 1.9949-3.8985-0.4243zm156.69 0.7925c-1.3376-1.3377-1.5661-3.4669-0.4363-4.0662 0.4125-0.2188 1.7634 0.134 3.002 0.7842 2.1651 1.1364 2.182 1.2454 0.4363 2.8252-1.4005 1.2675-2.0868 1.3719-3.002 0.4568zm-159.16-13.238c-1.8839-3.0481-2.0018-3.9395-1.0088-7.6272 0.8342-3.0979 1.4153-3.8848 2.2516-3.0485 1.9839 1.9839 2.8958 1.206 1.2839-1.0953-1.9002-2.713-2.1168-7.2053-0.3067-6.3615 0.6875 0.3205 2.0375 0.8605 3 1.2 2.076 0.7323 2.1808 1.6816 0.5 4.5282-1 1.6937-1 2.2077 0 2.5698 2.688 0.9734 0.1912 13.286-2.6941 13.286-0.491 0-1.8527-1.5532-3.0259-3.4515zm160-0.487c-1.693-4.0873-1.8569-9.6278-0.2755-9.3115 1.7157 0.3432 1.572-1.2379-0.25-2.75-2.4336-2.0197-1.729-3.7381 1.75-4.268 1.7875-0.2722 3.3548-0.406 3.4829-0.2972 0.1281 0.1087-0.1818 1.6438-0.6887 3.4112-0.789 2.7508-0.6785 3.1733 0.7671 2.9338 2.8566-0.4733 2.916 7.8171 0.078 10.838-2.8739 3.0591-3.3903 3-4.8635-0.5567zm-157.11-21.961c-1.3238-4.4183-0.8433-5.9919 1.2723-4.167 0.7237 0.6243 2.1273 1.6937 3.1191 2.3765 1.7029 1.1723 1.6652 1.3713-0.6779 3.5725l-2.4812 2.331zm155.29 2.6998c-1.5344-1.5344-1.5515-3.8-0.029-3.8 0.6442 0 1.9942-0.7447 3-1.655 1.6442-1.488 1.8287-1.4945 1.8287-0.065 0 2.3218-1.8164 6.7201-2.7752 6.7201-0.4537 0-1.3648-0.54-2.0248-1.2zm-152.58-9.925c-0.9432-4.7161-0.8118-5.0662 1.625-4.33 3.463 1.0463 3.9472 1.9281 2.6374 4.8029-1.6213 3.5582-3.4978 3.35-4.2624-0.4729zm149.36 1.1043c-0.5947-1.1113-0.8281-2.4305-0.5184-2.9315 0.3096-0.501-0.4299-1.6064-1.6434-2.4564-2.4913-1.7449-2.5082-1.7162 1.9229-3.2746 2.9568-1.04 3.25-0.9646 3.25 0.8358 0 1.0884-0.4658 2.8493-1.0352 3.9132-1.1705 2.187-0.6899 2.3926 2.1009 0.899 1.5858-0.8486 1.9343-0.7045 1.9343 0.8 0 4.0405-4.2048 5.5896-6.0111 2.2145zm-146.38-7.5611c-0.8725-2.2736-0.7479-6.4182 0.193-6.4182 0.44 0 1.34 0.54 2 1.2 0.9333 0.9333 1.2 0.2667 1.2-3 0-4.7059 0.7294-5.1648 3.3481-2.1064 1.6334 1.9077 1.6531 2.2476 0.2222 3.8287-0.8637 0.9544-1.5703 2.4551-1.5703 3.335 0 1.6803-2.5599 4.7427-3.9644 4.7427-0.4519 0-1.0948-0.7118-1.4286-1.5818zm139.91-4.5261-2.9851-2.8921h2.6854c1.5147 0 3.1159-0.7629 3.6728-1.75 1.6454-2.916 3.4866-0.06 2.692 4.1753-0.797 4.2484-2.0615 4.3458-6.0651 0.4668zm-3.8621-6.7232c-0.9114-1.0072-1.3702-2.1181-1.0195-2.4688s-0.7705-1.4392-2.4915-2.4189c-3.0217-1.72-4.0923-3.2812-2.2502-3.2812 0.4904 0 1.1739-1.125 1.519-2.5s1.0478-2.5 1.5614-2.5c0.9776 0 2.956 6.0604 3.1014 9.5 0.064 1.5262 0.3314 1.3217 1.1266-0.8631 1.2744-3.5014 2.7614-1.839 2.7847 3.1131 0.017 3.697-1.7472 4.275-4.3319 1.4189zm-128.26-1.7426c-0.3552-1.4156-0.099-3.7736 0.5689-5.24 1.1742-2.5771 1.2621-2.6017 2.6269-0.7352 1.7278 2.363 1.8252 5.7358 0.2121 7.3489-1.8161 1.8161-2.6963 1.4613-3.4079-1.3737zm5.0989-6.4672c-0.7636-3.4768 1.1145-6.7536 2.8666-5.0015 1.6542 1.6542 2.3742 1.2507 3.4926-1.9576 1.2173-3.4921 2.7371-3.8756 3.673-0.9269 0.5065 1.5958-0.376 3.0925-3.8323 6.5-2.4697 2.4348-4.7247 4.4269-5.0112 4.4269-0.2864 0-0.8213-1.3684-1.1887-3.0409zm113.16-2.7878c-1.8033-1.9926-2.209-5.7108-0.7234-6.629 1.2929-0.799 4.0684 3.4172 4.0684 6.1802 0 2.7525-1.1238 2.9032-3.345 0.4488zm-6.405-4.8457c-1.4301-0.9976-2.25-2.5968-2.25-4.3885 0-5.766 3.5251-3.9768 4.9936 2.5346 0.8824 3.9122 0.5394 4.144-2.7436 1.8539zm-95.25-1.1907c0-2.0593 3.6085-7.1349 5.0726-7.1349 1.6664 0 0.9733 5.6485-0.9013 7.345-2.4161 2.1865-4.1713 2.0981-4.1713-0.2101zm87.5-4.1349c-0.9955-1.1-2.5542-2-3.4639-2-3.0992 0-5.2275-2.4278-4.8647-5.5493l0.343-2.9507 3.2428 3.3558c2.2509 2.3292 3.2428 2.8645 3.2428 1.75 0-2.2783 1.6186-1.9884 3.4433 0.6167 1.6579 2.3671 2.1211 6.7775 0.7117 6.7775-0.4648 0-1.6595-0.9-2.655-2zm-79.963-1.25c0.9445-3.1646 3.3275-6.75 4.4864-6.75 1.7045 0 1.0526 5.6215-0.8518 7.345-2.6685 2.4149-4.446 2.1239-3.6346-0.595zm6.4633-2.5275c0-0.9776 0.7005-2.7776 1.5567-4 1.7608-2.5139 4.707-3.0734 3.8049-0.7225-0.9124 2.3777 0.5976 1.7552 3.6384-1.5 3.5335-3.7826 5.059-3.8757 4.0985-0.25-0.4875 1.8399-1.7184 3.081-3.7194 3.75-1.6449 0.55-4.1873 1.7875-5.6498 2.75-3.3208 2.1856-3.7293 2.1826-3.7293-0.027zm58.557-3.445c-0.8562-1.2224-1.5435-3.3599-1.5274-4.75l0.029-2.5275 2.9707 3.2658c1.6339 1.7962 2.9707 3.9337 2.9707 4.75 0 2.2296-2.676 1.7849-4.4433-0.7383zm-7.2096-1.2469c-2.5554-1.7899-3.7678-5.5306-1.7924-5.5306 1.6977 0 5.4453 3.915 5.4453 5.6886 0 1.7041-1.0599 1.6582-3.6529-0.158zm-36.347-0.8563c0-1.6091 4.1656-5.6743 5.8145-5.6743 1.8247 0 1.4045 3.4919-0.6432 5.345-2.1946 1.986-5.1713 2.1756-5.1713 0.3293zm8-1.6486c0-1.6567 4.324-5.0257 6.4503-5.0257 1.52 0 0.264 4.0867-1.6728 5.4433-3.0141 2.1112-4.7775 1.957-4.7775-0.4176zm20.364 0.8047c-2.73-1.3219-4.9875-5.8304-2.9194-5.8304 1.6459 0 7.5553 4.7624 7.5553 6.0889 0 1.1661-1.9142 1.0594-4.6359-0.2585zm-10.364-0.8172c-1.1607-0.74-1.2496-1.3585-0.3928-2.7347 1.6993-2.7296 3.9106-2.6322 5.2145 0.2296 0.6481 1.4223 1.1783 2.7898 1.1783 3.039 0 0.8331-4.4811 0.4344-6-0.5339z"/>
 </g>
 <g id="Tutto" transform="translate(-87.704 -74.549)">
  <path d="m180.48 809.59c-27.442-4.0509-52.768-24.188-62.75-49.894-6.0753-15.646-5.6921 4.8277-5.6921-304.12 0-307.01-0.31343-289.08 5.295-302.96 4.2865-10.612 8.8797-17.264 18.693-27.072 7.7055-7.7009 11.276-10.432 18.55-14.189 4.9543-2.5588 12.815-5.6924 17.467-6.9636l8.4597-2.3112h558c533.26 0 558.34 0.0796 565.65 1.7951 14.514 3.4075 32.32 14.077 41.69 24.981 9.5737 11.141 14.395 20.238 17.763 33.513l2.4015 9.4672-0.01 284.12c-0.01 281.63-0.025 284.2-2.0277 292.55-6.6689 27.819-28.38 50.388-57.004 59.258l-7.4583 2.3121-557 0.1284c-306.35 0.071-559.26-0.2054-562.02-0.6132zm1120.6-4.962c31.418-6.9486 54.762-31.758 59.463-63.198 1.2468-8.3384 1.4145-49.475 1.1908-292.03l-0.2603-282.33-2.6137-7.6602c-8.7578-25.667-28.693-44.23-54.886-51.108l-8.5-2.232h-1116l-9.5 3.2452c-10.978 3.75-18.773 7.9774-26.227 14.223-13.007 10.899-21.871 24.832-25.795 40.547-1.9822 7.9371-1.9992 10.814-1.7377 293.5l0.26416 285.48 2.1817 6.7659c5.0292 15.596 11.229 25.604 22.481 36.289 11.41 10.835 28.941 18.561 44.833 19.757 2.475 0.1862 252.45 0.4074 555.5 0.4916 538.31 0.1495 551.2 0.1092 559.61-1.7505zm-1093.6-33.232c-1.9308-1.8497-1.9288-1.8877 0.21471-4.0312 2.1078-2.1078 2.2167-2.1162 4.1992-0.322 2.5274 2.2872 2.5082 2.6469-0.24613 4.6262-2.0522 1.4748-2.3648 1.4543-4.1678-0.273zm9.555-0.2087c-2.1156-2.2519-2.1174-2.2921-0.18658-4.0395 1.865-1.6878 2.061-1.6843 4.4841 0.081 3.1544 2.298 3.1748 2.7371 0.218 4.6745-2.2225 1.4562-2.519 1.4092-4.5155-0.716zm107.19-4.3626c-0.1127-3.7125-0.92007-9.8321-1.7942-13.599-2.2878-9.8597-0.0129-15.621 6.1847-15.663 0.99866-0.01 2.8236-1.5683 4.0554-3.4701 5.2392-8.0889 9.4981-7.9287 13.779 0.5184 2.3428 4.6233 2.7718 4.9631 6.2487 4.9488 5.5881-0.023 6.7612-1.2416 3.2128-3.3376-3.4117-2.0154-3.5495-2.6444-1.4627-6.6798 4.5922-8.8804 21.888-7.7421 20.075 1.3213-0.33882 1.6941-1.3803 3.9247-2.3144 4.9568-1.4661 1.6201-1.4987 2.003-0.23813 2.8004 0.80313 0.508 2.9227 0.9305 4.7102 0.9389 1.7875 0.01 3.5875 0.1278 4 0.2653s0.975-6.0023 1.25-13.644l0.5-13.894 7.1668-4.53-0.46614 12.909c-0.25638 7.1-0.29392 12.903-0.0834 12.896 0.2105-0.01 3.0336-1.3569 6.2736-3 6.1889-3.1384 11.957-3.8079 14.696-1.7055 2.2655 1.7394 3.9133 5.1723 3.9133 8.1525 0 2.2434 0.42058 2.5657 3.3481 2.5657 2.9475 0 3.5674-0.4862 5.1801-4.0627 2.1007-4.6585 6.7036-8.9373 9.6142-8.9373 5.4676 0 9.5475 6.9135 8.4396 14.301-1.0744 7.1648-2.1382 7.9969-8.3812 6.5558-4.234-0.9773-6.2875-0.9566-10.43 0.1051-6.5446 1.6773-49.581 1.968-54.868 0.3706-5.313-1.6054-19.604 0.4145-20.244 2.8613-0.43343 1.6574-0.84708 1.613-5.9343-0.6368-3.0076-1.3301-7.1214-2.7285-9.1418-3.1075l-3.6734-0.6891 0.68719 9.103c0.55919 7.4075 0.36589 9.9444-1.0377 13.62-0.94873 2.4841-2.0255 4.5166-2.3929 4.5166-0.36738 0-0.76017-3.0375-0.87287-6.75zm18.706-25.639c0-0.7641-0.85708-2.4477-1.9046-3.7413-1.8914-2.3358-1.9195-2.3386-4.0488-0.4117l-2.1441 1.9404 3.2988 1.759c4.0488 2.1589 4.7988 2.2298 4.7988 0.4536zm65-1.782c0-1.9779-3.1934-4.829-5.405-4.8257-1.1522 0-4.795 1.3172-8.095 2.9234l-6 2.9202 9.75 0.077c6.8274 0.054 9.75-0.2744 9.75-1.0946zm26.823-1.4716c-0.50035-2.5423-3.4964-4.0532-5.5138-2.7806-2.7674 1.7456-2.6124 3.2514 0.38119 3.7014 5.181 0.7789 5.4574 0.7293 5.1326-0.9208zm-66.823-5.4796c0-0.4827-1.6875-0.8676-3.75-0.8553l-3.75 0.022 2.4824 1.9073c2.4063 1.8489 5.0176 1.2898 5.0176-1.0742zm-159.55 28.716c-8.3003-3.6154-10.689-12.242-5.9694-21.556 2.4729-4.88 5.6757-8.374 4.0805-4.4515-2.4163 5.9416-2.6354 8.456-1.0314 11.836 1.7517 3.6914 7.1671 6.5779 12.341 6.5779 3.5551 0 9.1729-1.8365 11.086-3.6242 1.8284-1.7084 0.40941-3.3724-4.2512-4.9851-2.3275-0.8054-3.1127-1.6274-2.8657-3 0.6738-3.744 3.2342-5.3907 8.3821-5.3907 4.6291 0 4.8732-0.1297 4.2326-2.25-0.37388-1.2375-1.0561-2.6544-1.5161-3.1487-0.46-0.4944-0.1326-2.2597 0.72756-3.9231l1.5639-3.0243 1.7842 2.3653c0.98127 1.3009 2.2975 4.0788 2.925 6.1731 1.1403 3.8061 1.1432 3.8077 6.6007 3.8077 3.0029 0 5.4599-0.2681 5.4599-0.5957s-0.73817-1.8453-1.6404-3.3726c-1.6293-2.7582-1.4219-5.9205 0.59205-9.0268 0.83315-1.2851 1.1818-1.2148 2.4817 0.5 0.83178 1.0973 2.2418 3.858 3.1333 6.1349 1.3686 3.4955 1.4396 5.013 0.45625 9.75l-1.1647 5.6102h-20.858v3.2722c0 4.9903-4.9134 10.328-11.236 12.205-6.226 1.849-11.248 1.887-15.314 0.1161zm54.55-0.3159c-0.825-0.3106-2.6131-0.9771-3.9735-1.4813-2.4271-0.8994-2.3964-0.9511 1.637-2.7569 5.0087-2.2425 12.336-8.6878 12.336-10.851 0-0.8684-1.1984-2.8298-2.6632-4.3587l-2.6631-2.7797 1.815-4.025c0.99826-2.2137 2.1214-4.025 2.4958-4.025s2.1273 1.8 3.8952 4c2.2412 2.7889 3.99 4 5.7758 4 2.1768 0 2.4742-0.3469 1.9813-2.3109-1.7243-6.8702 4.0352-13.678 11.578-13.685 5.0118-0.01 11.72 5.4897 9.4604 7.7492-1.1399 1.1399-1.8941 1.2005-3.5972 0.289-1.1852-0.6343-4.0044-1.0157-6.2648-0.8476-4.8834 0.3631-6.9736 2.703-4.778 5.3485 1.2006 1.4467 2.6962 1.631 9.692 1.1945 4.5498-0.2838 8.2724-0.3782 8.2724-0.2096 0 0.1685-0.85569 2.3026-1.9015 4.7425-2.2186 5.1757-3.8942 5.7005-18.259 5.7187l-8.6608 0.011-2.1571 4.4561c-3.6494 7.5385-9.3947 11.563-14.021 9.8214zm-16.815-2.5365-2.1499-2.1499 2.125-2.262 2.125-2.2619 2.8987 2.064c2.3663 1.685 2.6766 2.3316 1.6895 3.521-2.5035 3.0166-4.4445 3.3326-6.6882 1.0888zm447.31-107.8c-29.54-1.313-59.42-4.1198-96-9.0177-17.28-2.3137-69.796-10.897-70.417-11.509-0.73553-0.7254 3.0574-0.4251 20.417 1.6161 66.728 7.8462 139.31 11.614 204.17 10.599 66.023-1.0333 99.362-2.9518 169.04-9.7274 11.664-1.1342 22.014-1.8525 23-1.5964 1.2489 0.3243 1.0217 0.5009-0.74815 0.5817-1.3979 0.064-11.748 1.6719-23 3.5736-75.878 12.824-158.76 18.489-226.46 15.48zm124.37-21.842c-2.318-1.877-2.3246-1.935-0.45579-4 2.4564-2.7142 3.7054-2.6412 6.997 0.4094 2.1991 2.0381 3.0738 2.3063 4.6939 1.4392 2.7776-1.4865 3.412-3.6034 6.7092-22.388l2.9061-16.556h-2.4333c-3.1743 0-2.7411-3.1845 0.53852-3.9587 1.7253-0.4073 2.7716-1.8963 4.1094-5.8478 2.8673-8.4697 9.6466-14.194 16.811-14.194 3.8947 0 7.4418 2.6806 7.0615 5.3364-0.44817 3.1297-3.6012 3.2349-6.743 0.2249-4.4618-4.2747-6.7095-2.1029-9.0594 8.7538-1.2161 5.6185-0.79532 6.6849 2.6378 6.6849 3.634 0 2.4139 2.4295-1.4107 2.809-2.9264 0.2903-3.1833 0.6524-4.2574 6-3.2454 16.157-4.9966 23.333-6.3156 25.879-4.8646 9.3881-15.919 14.161-21.789 9.4078zm198.31-3.2334c-1.8283-0.5267-5.3276-2.9611-7.7763-5.4098-2.4488-2.4487-5.1059-4.4522-5.9049-4.4522-2.0397 0-16.358-4.882-18.894-6.442-1.1552-0.7107-5.8129-2.5549-10.35-4.0982-4.5375-1.5433-8.25-3.1695-8.25-3.6138s1.2375-1.079 2.75-1.4105c5.6417-1.2362 5.9198-1.4533 3.8306-2.991-1.8921-1.3926-1.8921-1.4428-1e-3 -3.5322 2.4722-2.7317 9.0973-6.6016 15.405-8.9982l4.9738-1.8899 3.4176 3.0006c4.73 4.1531 6.9677 10.006 5.6565 14.795-0.5541 2.0242-1.9175 5.161-3.0297 6.9708-1.9283 3.1377-1.9338 3.2432-0.1201 2.2726 1.0462-0.5599 3.0756-2.4127 4.5099-4.1173 2.0655-2.4547 2.6079-4.1614 2.6079-8.2063 0-4.8073-0.2884-5.3852-4.9135-9.8432-2.7024-2.6047-4.6524-4.997-4.3333-5.3161s2.7955-0.5802 5.5032-0.5802c3.8989 0 5.302-0.4681 6.7449-2.25 1.6539-2.0426 2.6824-2.25 11.16-2.25 8.2497 0 10.017 0.3334 15.162 2.8595 5.0986 2.5035 7.7375 4.9537 6.5501 6.0816-0.2054 0.1952-4.8735-1.1661-10.374-3.025-7.3675-2.4901-11.58-3.3473-16-3.256l-6 0.1239 6.5 0.6822c3.575 0.3752 8.3 1.2535 10.5 1.9518 5.3367 1.6938 19.622 8.2934 19.094 8.8211-0.2299 0.2299-5.4623-1.2127-11.628-3.2058-6.1653-1.993-11.377-3.4561-11.582-3.2511-0.205 0.2049 4.6872 2.0892 10.871 4.1872 6.1843 2.0981 13.366 4.8757 15.961 6.1725l4.7165 2.3578 6.139-3.9678c6.0023-3.8796 20.35-10.032 23.396-10.032 2.7507 0 1.6416 1.879-5.6247 9.5284l-7.157 7.5345 2.8899 3.2185c1.5894 1.7703 4.9056 5.3561 7.3694 7.9686l4.4795 4.75h-3.1749c-4.4834 0-12.991-3.3865-20.18-8.0329-3.3758-2.1819-6.517-3.9671-6.9803-3.9671-0.4632 0-5.0606 2.0092-10.216 4.4648-5.1557 2.4557-12.749 5.2398-16.874 6.1871-4.125 0.9472-7.6883 1.8638-7.9183 2.0368-0.2301 0.1731 1.0353 2.3389 2.8121 4.813l3.2305 4.4983-2.8122-0.09c-1.5467-0.05-4.308-0.5211-6.1362-1.0478zm17.324-13.855c3.85-1.207 7.3993-2.5742 7.8874-3.0384 0.4881-0.4641-2.6619 0.2843-7 1.6632-4.3381 1.379-12.162 2.8964-17.387 3.3721l-9.5 0.8649 9.5-0.3336c6.1566-0.2163 11.964-1.106 16.5-2.5282zm31.5-6.3924c0-0.2117-1.2375-1.1384-2.75-2.0593l-2.75-1.6744 2.3608 2.0594c2.3037 2.0095 3.1392 2.4552 3.1392 1.6743zm-50.526-3.5653c1.9306-3.7335 1.9073-4.0276-0.5592-7.0497l-2.0405-2.5 0.6975 2.5c0.3836 1.375 1.1885 2.8144 1.7887 3.1987 0.7261 0.465 0.3365 1.7195-1.1648 3.75-1.2407 1.6782-1.804 3.0513-1.2516 3.0513 0.5523 0 1.6908-1.3276 2.5299-2.9503zm6.879 0.2455c1.0551-2.0137 1.15-3.2912 0.3714-5-1.2081-2.6515-3.3175-3.1773-2.1872-0.5452 0.4134 0.9625 0.7516 2.425 0.7516 3.25s-0.3382 2.2875-0.7516 3.25c-1.1972 2.7879 0.2549 2.0243 1.8158-0.9548zm6.8101-4.5492-2.2731-2.246 0.9113 2.5c0.5012 1.375 0.6969 3.175 0.4349 4-0.3681 1.1592-0.059 1.1015 1.3618-0.254 1.7812-1.6996 1.7678-1.8235-0.4349-4zm7.8366 2.754c0-0.7601-0.45-1.6601-1-2-0.5694-0.3519-1 0.5093-1 2s0.4306 2.3519 1 2c0.55-0.3399 1-1.2399 1-2zm25.559-1.9682c1.0676-0.8075 1.4911-1.4682 0.9411-1.4682s-1.8735 0.6607-2.9411 1.4682c-1.0677 0.8075-1.4912 1.4682-0.9412 1.4682s1.8735-0.6607 2.9412-1.4682zm-73.234-4.1898c0.9044-0.9043-1.3368-3.4525-2.4379-2.772-1.3788 0.8522-1.0431 3.43 0.4466 3.43 0.7334 0 1.6294-0.2961 1.9913-0.658zm-453.76 20.596c-5.0915-1.2726-9.6233-4.7753-12.08-9.3367-1.1896-2.209-2.4845-3.4313-3.3025-3.1174-0.74006 0.284-4.2751 0.5163-7.8556 0.5163h-6.5101l0.68372 10.5-10.5 0.3645c-5.775 0.2005-21.344 0.4255-34.597 0.5-19.086 0.1073-24.44-0.1493-25.747-1.2343-2.293-1.9034-5.0205-11.287-3.5457-12.199 0.80699-0.4988 0.79031-0.7979-0.0603-1.0814-0.83541-0.2785-0.61617-1.6887 0.75726-4.8711 3.1946-7.4021 4.2687-7.9149 18.802-8.9779 15.047-1.1006 41.39-1.2841 50.321-0.3507 5.707 0.5966 6.176 0.8249 5.6462 2.75-0.31779 1.1548-0.86007 3.787-1.2051 5.8495l-0.62728 3.75 14.756-0.02 0.14571-3.9223c0.39079-10.52 7.4914-21.028 17.074-25.266 5.9088-2.6137 15.568-3.4103 22.165-1.8278 4.1947 1.0063 5.1141 1.6146 5.1051 3.3776-0.0184 3.5987-1.2103 9.6502-1.9007 9.6502-0.35749 0-1.3111-1.9125-2.1192-4.25-2.9413-8.5086-12.512-9.8584-20.28-2.8602-5.9036 5.3182-8.9724 12.853-9.005 22.11-0.0388 11.023 4.5136 18.02 11.701 17.985 4.608-0.023 5.5034-1.0131 6.6826-7.3918 1.2719-6.8805 0.88054-8.2508-2.7918-9.7747l-2.7756-1.151 4.5-0.7591c5.7111-0.9634 16.459-1.1149 17.33-0.2443 0.36469 0.3647-0.64079 1.456-2.2344 2.4251-2.2351 1.3593-3.1487 2.9335-3.9964 6.8862-0.60441 2.8182-1.0989 6.0249-1.0989 7.1259 0 4.0483-14.565 7.0547-23.436 4.8375zm-17.314-14.67c-2.3375-0.2105-6.1625-0.2105-8.5 0s-0.425 0.3828 4.25 0.3828 6.5875-0.1723 4.25-0.3828zm79.5 14.656c-2.2589-1.3202-2.2039-4.4716 0.25701-14.737 1.0961-4.5724 1.993-8.9616 1.993-9.7538 0-1.834-6.0379-1.5208-7.5406 0.3911-0.85526 1.088-1.545 1.0941-3.8719 0.034-2.6406-1.2032-2.9928-1.0904-5.231 1.676-2.4701 3.053-4.8429 9.8231-6.1541 17.559-0.71327 4.2083-0.91479 4.4207-4.4746 4.7171-4.5232 0.3766-4.4999 0.58-1.6189-14.114 1.165-5.9418 1.8034-11.117 1.4186-11.5-0.38475-0.3833-1.5721 0.3794-2.6385 1.6948-2.1835 2.6934-3.4007 2.2961-2.4211-0.7903 0.96148-3.0293 6.0703-6.2872 9.2801-5.918 2.4545 0.2824 2.8086 0.8032 3.2745 4.8167 0.42522 3.6626 0.66674 4.0927 1.2978 2.3116 0.95206-2.6871 7.2022-8.3116 9.236-8.3116 0.81765 0 1.9805 1.0839 2.5841 2.4086l1.0975 2.4087 4.6055-2.4488c9.2311-4.9083 10.611-2.2444 7.1278 13.764-1.1962 5.4982-1.9022 10.269-1.569 10.603 0.33321 0.3332 1.6816-0.4048 2.9964-1.64 3.8633-3.6294 3.8916-0.7008 0.0315 3.2737-1.9394 1.997-3.9178 3.6309-4.3963 3.6309s-1.4694 0.2129-2.2019 0.4731c-0.73249 0.2602-2.1193 0.013-3.0818-0.5497zm34.736-0.9387c-1.7318-1.9137-1.6664-2.6384 1.8729-20.734 4.398-22.486 4.4211-23.004 1.0808-24.274-3.6106-1.3727-2.3192-2.6028 3.5499-3.3813 2.769-0.3674 5.7042-0.9248 6.5224-1.2388 2.2004-0.8444 1.9466 1.6796-2.4269 24.143-2.1416 11-3.6645 20.371-3.3841 20.825 0.2804 0.4539 1.5856-0.1854 2.9004-1.4206 2.6588-2.4978 4.0976-2.0727 2.5713 0.7598-3.0729 5.7024-9.7912 8.5198-12.687 5.3203zm40.105 0.5943c-5.3391-1.9841-7.6544-4.5707-8.2189-9.1822-0.63501-5.1871 2.1638-9.5692 8.7114-13.639 4.1632-2.588 4.9305-3.5008 4.3697-5.1983-3.271-9.9015 0.1322-16.859 9.5704-19.566 4.6546-1.3349 10.975 0.3194 13.819 3.6168 4.1133 4.77 1.1312 11.291-7.0924 15.508-2.0625 1.0576-3.75 2.1938-3.75 2.5248s2.3563 3.5061 5.2363 7.0557l5.2363 6.4538 2.2637-2.6318c3.2949-3.8305 3.0666-8.797-0.48626-10.577l-2.75-1.3777 3.5-0.3658c1.925-0.2012 5.9693-0.058 8.9873 0.3187l5.4873 0.6846-3.2943 1.7036c-3.5615 1.8417-10.71 13.271-9.7934 15.659 0.79431 2.0699 5.4354 4.7181 9.4491 5.3917l3.6639 0.6148-2.7017 1.7971c-3.8616 2.5687-11.289 2.3832-15.02-0.3751l-2.938-2.1722-5.0563 2.1751c-6.55 2.8178-14.176 3.4461-19.193 1.5816zm19.01-5.6172 2.7307-1.0382-3.493-3.7118c-1.9212-2.0415-4.9585-5.6243-6.7497-7.9618-1.7911-2.3375-3.8611-4.25-4.6-4.25-2.4578 0-5.4886 5.0706-5.4886 9.1826 0 5.6271 3.6475 8.8174 10.081 8.8174 2.6339 0 6.0177-0.4672 7.5196-1.0382zm-0.81732-25.522c1.2255-0.8584 2.9361-2.9296 3.8013-4.6027 2.851-5.5132-1.5683-11.521-6.5238-8.8691-4.0764 2.1817-4.938 5.9969-2.6117 11.565 1.6343 3.9114 2.1895 4.1099 5.3342 1.9072zm50.407 31.322-6.31-0.9523 0.68198-5.6547c0.91049-7.5494 1.981-9.405 2.8263-4.8992 0.78543 4.1867 4.5975 8.3078 8.3863 9.0664 3.8927 0.7793 9.4128-2.1913 10.537-5.6705 1.2798-3.9598-0.31437-6.4933-7.9215-12.589-7.5204-6.0265-9.8156-9.8541-9.1015-15.178 1.1773-8.7772 8.978-13.761 19.47-12.438 3.1579 0.398 6.5292 0.782 7.4917 0.8533 1.9197 0.1423 2.0602 1.1588 1.1141 8.0615-0.73079 5.3317-1.8436 5.9922-2.7192 1.614-1.5163-7.5815-11.198-10.901-15.572-5.3395-3.9992 5.0841-2.6717 7.6901 8.7487 17.175 8.8315 7.3349 10.199 13.447 4.5198 20.196-4.824 5.733-11.244 7.4011-22.151 5.7552zm60.215-0.8692c-1.4174-1.568-1.8967-3.5745-1.8727-7.8395 0.04-7.1011 3.3429-14.016 8.8107-18.446 3.4902-2.8279 4.6336-3.1514 12.747-3.6066 7.2982-0.4094 8.9126-0.2407 8.9114 0.931-8e-4 0.787-0.99126 6.5097-2.201 12.717-2.2721 11.658-1.9531 14.486 1.1959 10.602 1.0033-1.2375 2.0896-2.25 2.4139-2.25 2.5204 0-3.5435 7.72-7.1371 9.0862-3.7479 1.425-6.2732-0.4663-6.2732-4.6981v-3.5415l-2.6191 3.1126c-4.9931 5.934-10.712 7.5436-13.976 3.9333zm14.784-8.3925c1.5247-2.2 3.4964-6.8685 4.3815-10.374 1.4807-5.8652 1.4802-6.5037-7e-3 -7.9905-1.4604-1.4604-1.8781-1.4689-4.3397-0.088-5.1001 2.8613-9.9331 16.056-7.8599 21.459 1.0522 2.7422 4.8531 1.2821 7.8248-3.0058zm107.13 9.493c-3.0577-1.232-4.319-4.0747-4.2934-9.6772 0.0287-6.2856 2.6832-11.93 7.7651-16.512 3.9753-3.5841 10.465-6.1905 13.931-5.5952 1.3298 0.2284 2.0198-1.0857 3.1902-6.0752 1.4081-6.0031 1.3879-6.4437-0.35474-7.7179-1.0165-0.7433-2.2318-1.1143-2.7008-0.8244-0.46897 0.2898-0.85268 0.059-0.85268-0.513s1.2375-1.3172 2.75-1.6561c1.5125-0.3388 4.2828-1.0055 6.1562-1.4815s3.72-0.6715 4.1036-0.4345c0.92011 0.5687-0.25429 8.4682-4.1927 28.202-3.1107 15.586-3.1914 19.892-0.29861 15.936 0.74517-1.0191 1.8992-1.6715 2.5644-1.4497 1.5228 0.5076-4.3519 7.3813-6.8716 8.0402-0.98216 0.2569-2.7815 0.099-3.9985-0.3515-1.7474-0.6464-2.2141-1.6139-2.2193-4.6008l-7e-3 -3.7822-1.9743 3c-1.887 2.8672-7.351 6.5706-9.4969 6.4366-0.55858-0.035-1.9987-0.4595-3.2002-0.9436zm11.393-7.243c4.5655-4.993 8.4187-17.687 6.1856-20.377-2.8946-3.4878-8.1511 0.025-10.856 7.2548-1.976 5.2814-2.7284 13.349-1.3715 14.706 1.3271 1.3272 4.028 0.6194 6.042-1.5833zm-320.64 5.3841c-0.72769-1.3597 0.067-7.1963 2.9288-21.512 2.1601-10.805 3.6771-20.298 3.3711-21.096s-1.4214-1.7245-2.4786-2.06c-2.9571-0.9386-1.4027-2.1626 3.7224-2.9311 2.5521-0.3828 5.3274-0.9596 6.1675-1.282 1.3145-0.5044 1.4297 0.3081 0.82681 5.8305-0.38526 3.5291-2.1825 13.747-3.9938 22.707-1.8113 8.9599-2.9279 16.517-2.4813 16.793s1.599-0.4173 2.5608-1.5407c0.96188-1.1234 2.0989-2.0426 2.5266-2.0426 1.762 0 0.58066 3.0433-2.2992 5.9231-3.6661 3.6661-9.2065 4.2844-10.851 1.211zm158.52-1.2108c-5.4814-6.5142-2.2998-18.498 6.628-24.965 3.2766-2.3736 5.1094-2.9579 9.2782-2.9579 5.7278 0 8.505 1.9248 8.505 5.8945 0 5.1799-4.1956 8.4775-13.5 10.61-5.3743 1.2319-6.2159 2.4819-4.5757 6.7961 1.4471 3.8062 5.312 4.4687 10.726 1.8385 5.0364-2.4469 5.3499-2.5124 5.3499-1.1174 0 0.5622-2.1131 2.3622-4.6958 4-3.6631 2.3231-5.8428 2.978-9.9111 2.978-4.5961 0-5.5227-0.3653-7.8042-3.0767zm10.863-14.339c3.7446-1.5646 5.5484-4.1523 5.5484-7.9599 0-3.1617-1.3678-4.0335-4.0644-2.5903-2.8304 1.5148-7.5499 11.966-5.4035 11.966 0.29266 0 2.0564-0.6369 3.9195-1.4153zm73.314 14.496c-2.9402-2.6286-3.2586-3.4512-3.1937-8.25 0.17047-12.613 10.975-22.3 22.079-19.796 4.8704 1.0984 7.3858 3.8209 8.0405 8.7026 0.72026 5.3699-1.1612 10.671-5.487 15.459-4.5947 5.0858-8.0398 6.8045-13.639 6.8045-3.5976 0-5.2083-0.6029-7.7997-2.9198zm13.026-1.3587c4.1233-4.389 7.1817-17.053 5.3062-21.972-1.2713-3.3341-4.9181-3.7113-7.5682-0.783-2.1341 2.3582-5.5298 14.063-5.5298 19.061 0 6.0404 3.8655 7.8726 7.7919 3.6931zm21.162 2.9967c-6.8153-5.3706-6.4262-16.398 0.84894-24.058 3.9642-4.1734 7.8479-5.8554 13.42-5.8122 6.3047 0.049 9.4157 2.0965 10.758 7.081 2.0485 7.6074-1.9516 16.361-9.9717 21.82-3.7166 2.5302-12.367 3.0865-15.055 0.9682zm11.912-3.2748c6.9333-8.8142 6.4354-28.121-0.61585-23.881-4.8579 2.9209-9.4285 21.108-6.2632 24.922 1.8713 2.2548 4.6131 1.84 6.879-1.0407zm-503.37-6.9667c-2.75-0.7637-5.3375-1.4083-5.75-1.4326-2.0803-0.1224-0.29039-2.0108 3.2477-3.4265 6.2051-2.4828 14.214-3.0206 24.03-1.6136 9.0213 1.2931 11.324 2.5069 6.2219 3.2798l-2.75 0.4166 2.75 0.1498c9.096 0.4956-5.8392 4.1967-16.474 4.0823-3.452-0.037-8.5263-0.6922-11.276-1.4558zm22.303-2.3863c2.9144-1.631-8.5752-3.2715-14.733-2.1036-5.8792 1.1149-7.1262 1.7206-4.963 2.4104 0.76622 0.2444 2.0681 0.6977 2.8931 1.0074 2.0487 0.7689 14.873-0.2341 16.803-1.3142zm180.91-25.71c-1.2262-1.2261-0.78154-5.0798 0.7309-6.335 3.4266-2.8438 9.2197 1.078 6.9491 4.7043-1.1224 1.7926-6.3979 2.9128-7.68 1.6307zm-40.748-53.131c-1.8511-2.3358-2.108-3.6581-1.7054-8.7794 0.54682-6.957 3.1512-12.616 7.902-17.17 4.69-4.4956 9.2135-6.0612 17.588-6.0871 8.6989-0.0269 8.4703-0.82377 4.7287 16.482-2.6043 12.045-2.2344 15.914 1.0432 10.911 1.9382-2.958 3.4781-3.3897 3.4781-0.97498 0 2.6253-6.7743 8.3681-9.8712 8.3681-3.5808 0-5.1288-1.6807-5.1288-5.5684v-3.1684l-4.3684 4.3684c-5.4658 5.4658-10.175 6.0235-13.666 1.6184zm16.091-8c3.2767-5.1658 5.943-12.978 5.943-17.412 0-3.5511-3.818-4.842-7.393-2.4996-4.6675 3.0582-8.8085 15.739-7.2142 22.091 0.47802 1.9046 1.294 2.5709 3.1482 2.5709 1.8965 0 3.2331-1.151 5.516-4.75zm21.423 9.5595c-0.28489-0.7424 0.61548-6.9151 2.0008-13.717 1.3853-6.802 2.5188-12.755 2.5188-13.23 0-1.8568-2.9385-0.72138-4.8849 1.8875l-2.0517 2.75-0.0317-2.6464c-0.0418-3.4929 5.9407-8.8536 9.8807-8.8536 4.0814 0 5.4422 2.162 4.8223 7.6618l-0.52364 4.6457 2.6445-4.822c2.9931-5.4577 7.2188-9.0547 9.5751-8.1505 0.8727 0.33489 2.1138 1.7656 2.7579 3.1794 1.0023 2.1999 0.87449 2.8671-0.88682 4.6284-1.6998 1.6998-2.4273 1.8603-4.1798 0.92242-1.4011-0.74986-2.7271-0.81162-3.9039-0.18183-2.5716 1.3763-6.337 9.4707-8.3669 17.986-0.96621 4.0532-1.8904 7.4882-2.0539 7.6332s-1.76 0.57705-3.548 0.9601c-2.3163 0.49623-3.3997 0.3084-3.7688-0.65336zm100.72-9e-3c-1.6497-1.6497-1.4753-4.8751 0.8-14.8 2.6579-11.594 2.6038-13-0.5-13-1.375 0-2.5-0.44085-2.5-0.97968 0-1.5402 7.5976-5.0203 10.96-5.0203 2.9118 0 3.0392 0.17895 3.0256 4.25-8e-3 2.3375-1.1091 8.75-2.4473 14.25-2.6462 10.876-2.1559 13.348 1.8006 9.0792 1.561-1.6844 2.7308-2.2752 3.1528-1.5923 0.36903 0.5971-1.1127 2.8693-3.2928 5.0494-4.1256 4.1256-8.5304 5.2324-10.999 2.7638zm20.123 0.50378c-3.0563-0.59494-4.5215-2.7105-4.1449-5.9848 0.47476-4.1278 3.1848-4.0646 5.661 0.13222 1.4932 2.5308 2.7971 3.5488 4.5458 3.5488 7.4751 0 7.5131-3.9532 0.11551-12-4.525-4.9221-5.5-6.6162-5.5-9.557 0-6.8843 4.2652-10.443 12.516-10.443 6.1685 0 8.4839 1.3581 8.4839 4.9762 0 4.275-1.762 4.6468-5.384 1.1362-3.6941-3.5805-7.0674-4.006-8.6288-1.0885-0.93755 1.7518-0.33267 2.8108 4.4992 7.8764 8.6961 9.1169 9.1544 14.738 1.6157 19.812-3.2777 2.2064-7.8854 2.7385-13.78 1.5911zm27.877-0.50378c-1.6608-1.6608-1.4797-6.5753 0.68161-18.498 1.8474-10.191 1.8472-10.198-0.18813-10.5-3.213-0.47621-3.1804-2.7362 0.0557-3.8643 1.8522-0.64569 3.7816-2.5688 5.2466-5.2294 1.2744-2.3145 2.3601-4.2841 2.4127-4.3769s1.3719-0.48904 2.9319-0.88056l2.8362-0.71184-0.70349 5.6306-0.7035 5.6306h3.1152c2.1024 0 3.1152 0.48767 3.1152 1.5 0 0.90022-0.92321 1.5-2.3089 1.5-4.0657 0-5.3118 2.1808-7.6304 13.354-2.5104 12.097-1.9564 14.775 2.2405 10.833 3.5047-3.2925 5.2413-2.7573 2.688 0.82833-3.6471 5.1219-10.926 7.6478-13.789 4.7849zm25.188 0.21993c-10.94-4.4204-6.9411-25.701 6.0079-31.97 5.0317-2.4358 12.279-2.6664 15.387-0.48964 9.5757 6.7071 4.9735 24.861-7.9934 31.531-3.8618 1.9864-9.77 2.3957-13.402 0.92835zm10.248-2.4776c3.6138-2.5312 6.6301-11.196 6.7533-19.399 0.097-6.4548-0.15015-7.5324-2.0156-8.7897-1.9242-1.2969-2.4142-1.1905-5.1607 1.1205-3.652 3.073-6.1166 9.7133-6.8947 18.576-0.47001 5.3535-0.26453 6.8608 1.1246 8.25 2.0811 2.0811 3.4888 2.1362 6.193 0.24201zm49.436 0.82285c-4.191-5.3279-2.1934-16.674 4.2179-23.958 5.5221-6.2734 8.7617-7.6919 18.459-8.0826 9.8248-0.39579 9.3845-1.6246 5.6495 15.766-1.7463 8.1313-2.2696 12.439-1.5931 13.116s1.5684 0.15113 2.7155-1.5995c0.93946-1.4338 2.1064-2.6069 2.5931-2.6069 1.8946 0 0.71713 2.4032-2.9974 6.1176-5.8102 5.8102-11.118 5.0243-11.118-1.6462v-3.1286l-4.5176 4.3286c-5.5665 5.3336-10.097 5.9058-13.41 1.6937zm14.126-6.1151c3.4624-3.7006 5.3192-7.6298 6.8358-14.465 1.026-4.6239 1.0249-6.0082-6e-3 -7.25-4.8418-5.8343-14.029 6.2651-14.029 18.477 0 2.5604 0.3 4.9552 0.66667 5.3219 1.4056 1.4056 4.0598 0.55909 6.5321-2.0833zm43.373 7.1786c-1.9681-1.9681-1.9828-1.725 0.90193-14.875 1.3208-6.0208 2.178-11.308 1.905-11.75-1.0672-1.7267-3.3389-0.63943-6.1573 2.9468-4.1762 5.3141-6.1747 9.5593-8.0692 17.14l-1.6518 6.6098-8.21 0.60082 1.8406-9.3004c3.7858-19.13 3.5851-21.568-1.4038-17.053-1.861 1.6842-1.918 1.6583-1.5787-0.71564 0.45527-3.1859 6.161-7.0316 10.432-7.0316 3.987 0 4.9175 2.081 3.9565 8.8488l-0.66042 4.6512 3.5397-5.1779c4.278-6.258 7.0328-8.3221 11.106-8.3221 6.067 0 6.8565 4.1209 3.4845 18.187-1.0962 4.5723-1.9962 8.8758-2 9.5634-0.0113 2.0213 2.7513 1.4331 4.4133-0.93967 1.9724-2.8159 3.255-1.5878 1.7625 1.6877-1.3365 2.9334-6.7382 6.4928-9.8614 6.4982-1.1982 2e-3 -2.8857-0.7034-3.75-1.5677zm20.629 0.37143c-1.7243-1.7243-1.4852-7.1938 0.8-18.3 1.1-5.3461 2-9.8643 2-10.041 0-0.1762-0.97725-0.46417-2.1717-0.63992-3.4014-0.5005-3.1827-2.2802 0.49585-4.0343 2.1085-1.0055 4.0342-3.0347 5.1665-5.4441 2.0118-4.2812 3.1393-5.3034 5.8746-5.3258 1.6785-0.0138 1.7964 0.53519 1.178 5.4847l-0.68718 5.5h3.072c2.064 0 3.072 0.49219 3.072 1.5 0 1.042-1.0481 1.5-3.4326 1.5-3.9538 0-3.6518-0.63837-6.5753 13.9-2.4181 12.026-1.7758 14.183 2.8916 9.711 3.6385-3.4859 5.4159-1.6304 1.9711 2.0576-4.5036 4.8215-10.999 6.7866-13.655 4.131zm22.566-1.7201c-3.001-2.6834-3.2606-3.3927-3.2014-8.75 0.0471-4.2671 0.7812-7.2223 2.7385-11.024 6.9608-13.52 26.697-17.139 26.697-4.8948 0 5.2055-6.4931 9.737-17.25 12.039-2.3308 0.49872-2.75 1.0954-2.75 3.9144 0 6.479 5.9219 8.4939 13.103 4.4581 4.5143-2.5372 6.264-1.7997 2.789 1.1755-7.8276 6.7019-16.696 7.9373-22.126 3.0822zm11.7-16.501c3.7284-1.5578 6.841-6.4126 6.345-9.8965-0.23995-1.6855-0.98926-2.1823-3.2912-2.1823-2.4528 0-3.3606 0.70826-5.1274 4-2.6705 4.9755-3.8035 9.5-2.379 9.5 0.57814 0 2.5818-0.63955 4.4526-1.4212zm-432.97 17.421c0.33992-0.55 1.4217-1 2.404-1 3.6103 0 4.8359-3.4617 8.463-23.905 3.7664-21.228 3.7458-22.29-0.45738-23.624-4.2927-1.3624-1.249-1.9838 10.843-2.2135 8.2234-0.1562 13.978 0.19871 16.213 1 3.9768 1.4254 8.0364 6.804 8.0309 10.64-6e-3 4.1292-3.659 9.1096-8.0272 10.944-2.1718 0.91199-3.937 1.8832-3.9226 2.1582 0.0143 0.275 1.9223 1.4 4.2398 2.5 5.2001 2.4681 7.3373 7.4708 5.7345 13.423-2.3261 8.6386-8.7553 11.077-29.205 11.077-9.7009 0-14.717-0.35039-14.315-1zm29.461-4.9585c4.8788-5.2227 4.4304-15.156-0.81081-17.961-1.7206-0.92081-8.1477-1.5756-8.1518-0.83049-7.5e-4 0.1375-0.67513 4.075-1.4986 8.75-2.3044 13.082-2.3239 13 3.0988 13 3.806 0 5.0752-0.51002 7.3624-2.9585zm-1.6802-23.508c3.6712-0.77499 6.7104-5.8488 6.7152-11.211 3e-3 -3.3466-0.53156-4.5985-2.6876-6.2945-5.0898-4.0036-6.5308-2.6697-8.8792 8.2189-1.1562 5.3608-1.9247 9.9244-1.7079 10.141 0.38943 0.38944 1.1101 0.29552 6.5595-0.85483zm101.72 28.467c0-0.55 0.81399-1 1.8089-1 4.4117 0 5.2789-2.0821 8.7694-21.054 4.1767-22.702 4.2441-24.614 0.92177-26.128-5.4857-2.4995-2.4824-3.1286 11.957-2.505 16.271 0.70274 20.585 1.9342 22.976 6.5585 4.1048 7.9378-0.7349 17.062-10.836 20.429-1.0803 0.36009 5.0809 12.191 9.1645 17.598 1.4118 1.8694 3.843 3.8806 5.4025 4.4692 4.7 1.774 3.2366 2.6318-4.4902 2.6318-8.8816 0-9.2617-0.32502-16.667-14.25-2.8519-5.3625-5.767-9.75-6.478-9.75-0.84657 0-1.885 3.2892-3.0086 9.5297-1.8344 10.188-1.3582 12.47 2.6021 12.47 1.0327 0 1.8776 0.45 1.8776 1 0 0.61111-4.6667 1-12 1s-12-0.38889-12-1zm31.128-27.566c8.5682-4.4308 7.0396-19.767-1.9702-19.767-1.737 0-3.3456 0.1875-3.5745 0.41666-0.22893 0.22917-1.285 5.0292-2.3468 10.667l-1.9305 10.25h3.3964c1.868 0 4.7595-0.70489 6.4255-1.5664zm133.54 15.002c1.3357-7.5173 2.2453-13.851 2.0214-14.075-0.87305-0.87305-3.6484 0.92272-4.2228 2.7323-0.79247 2.4968-2.4707 2.4568-2.4707-0.0591 0-3.061 6.5525-9.0333 9.9109-9.0333 3.9536 0 5.4606 2.194 4.8146 7.0098-0.30411 2.2673-0.1445 3.7492 0.36962 3.4314 0.49768-0.30758 0.90487-1.1732 0.90487-1.9235 0-1.702 4.5724-7.2185 7.1079-8.5754 2.8987-1.5513 5.8921 0.50283 5.8921 4.0432 0 3.6055-2.45 5.2222-5.6819 3.7497-4.353-1.9834-7.9122 3.9333-11.288 18.765l-1.5932 7-8.1934 0.6031zm-429.62 0.22152c0.69861-0.75499 74.28-5.3022 98.719-6.1007 16.01-0.5231 18.348-0.40339 18.874 0.96659 0.33001 0.85999 0.42163 1.742 0.20361 1.96-0.21802 0.21803-21.536 0.89311-47.374 1.5002s-52.377 1.3669-58.977 1.6886c-6.6 0.32163-11.75 0.31503-11.445-0.0147zm706.45-0.21878c-0.55-0.22228-22.947-0.79645-49.772-1.2759-26.824-0.47947-48.998-1.0977-49.274-1.3738-0.2761-0.2761-0.2405-1.1834 0.079-2.0163 0.6627-1.7268-4.3385-1.8317 60.966 1.2786 23.65 1.1264 46.375 2.4157 50.5 2.8652l7.5 0.8172-9.5 0.0546c-5.225 0.03-9.95-0.12727-10.5-0.34956zm-376.93-30.01c-0.86429-0.86428-1.5714-2.1821-1.5714-2.9286 0-3.6083 6.1758-5.9242 8.8-3.3 1.8371 1.8371 1.4279 5.6077-0.73426 6.7648-2.713 1.452-4.6675 1.2906-6.4943-0.53625z"/>
 </g>
</svg>
