<?xml version="1.0" encoding="UTF-8"?>
<svg width="163" height="126" version="1.1" viewBox="0 0 163 126" xmlns="http://www.w3.org/2000/svg">
 <path d="m12.546 122.26c-0.61307-3.0654-6.1608-7.1287-9.7329-7.1287-1.0686 0-1.9428-0.45-1.9428-1 0-1.4099 2.485-1.242 6.5102 0.43982 3.2662 1.3647 7.4779 6.6027 7.486 9.3102 0.0073 2.4375-1.755 1.2062-2.3205-1.6213zm5.4604 1.198c-0.0749-1.1953-1.3606-3.6285-2.8572-5.407-1.4966-1.7786-2.0864-3.0222-1.3108-2.7637 2.4768 0.82561 5.2323 5.4316 4.7563 7.9507-0.41666 2.2054-0.46282 2.2227-0.58832 0.21995zm44.455-3.9612-4.9093-5.5849-20.756 0.3597c-11.416 0.19784-21.094 0.0222-21.507-0.39029-0.413-0.4125 5.2866-0.78591 12.666-0.82981 30.689-0.18255 33.142-0.0932 32.356 1.1785-0.23234 0.37594 1.4021 2.3319 3.6322 4.3466 2.23 2.0147 3.9138 4.3025 3.7417 5.0841-0.19274 0.87536-2.1979-0.72349-5.2222-4.1639zm33.663 3.9223c0.09123-1.2111 0.33277-2.035 0.53677-1.831 0.204 0.204 2.0222-1.5028 4.0404-3.7929 2.0182-2.2901 4.0496-4.4417 4.5142-4.7813 0.46456-0.33963 10.131-0.44481 21.481-0.23374 23.065 0.42896 24.391 0.79048 21.715 5.9211-0.84039 1.6116-1.5308 3.7176-1.5342 4.6801-3e-3 0.9625-0.45616 1.75-1.0062 1.75-1.5054 0-1.2099-2.1654 0.84561-6.1972l1.8456-3.6201-3.5956-0.46552c-1.9776-0.25604-11.532-0.53833-21.231-0.62731l-17.636-0.16179-5.0706 5.7808c-3.951 4.5043-5.034 5.2946-4.9048 3.5788zm53.052-0.2068c0.49434-3.2392 3.9492-6.9656 7.9376-8.5615 5.6085-2.2441 8.0057-1.7097 2.757 0.61457-5.4584 2.4172-9 5.5811-9 8.0403 0 1.0041-0.44718 1.8257-0.99373 1.8257-0.54654 0-0.86193-0.86358-0.70085-1.9191zm-81.306-4.0819c-2.3029-2.7505-4.6643-4.706-5.2476-4.3455-0.58332 0.36051-0.77666 0.19609-0.42965-0.36538 0.34701-0.56148-0.16131-1.7378-1.1296-2.6141-1.2913-1.1686-4.2833-1.6707-11.226-1.8836-7.8349-0.24035-9.3971-0.54883-9.0666-1.7904 1.2212-4.5878 1.1243-7.1482-0.39148-10.342-2.3663-4.9866-9.55-7.4531-16.82-5.775-2.7431 0.63318-5.1177 1.0209-5.2771 0.86157s-0.3927-3.145-0.51864-6.6348c-0.26126-7.2399-1.1459-8.4608-9.6422-13.306-2.8875-1.6467-5.5242-3.4378-5.8594-3.9802-0.3352-0.54236-0.64275-3.6977-0.68343-7.0119-0.064465-5.251 0.23892-6.2663 2.3594-7.8962 1.3384-1.0287 3.0225-1.8804 3.7424-1.8926 0.73262-0.0125 0.99483-0.5306 0.59549-1.1767-0.41322-0.6686-0.27708-0.88478 0.32345-0.51363 0.57033 0.35249 2.1024-0.17639 3.4045-1.1753 1.3021-0.99889 3.155-2.1036 4.1175-2.455 1.4182-0.51771 1.75-1.8541 1.75-7.0478 0-6.7774 1.3437-9.3132 4.0335-7.6119 4.0055 2.5333 15.583-0.58014 17.831-4.7952 0.8635-1.619 1.5906-6.0954 1.177-7.2467-0.09877-0.275-0.33746-1.6866-0.53042-3.1369l-0.35082-2.6369 20.066-0.80597 3.1366-3.5453c4.8631-5.4968 6.5052-7.673 6.0973-8.0808-0.5631-0.5631 3.2352-0.89437 11.039-0.9628 13.381-0.11732 11.887-0.80092 20.632 9.4429 2.1804 2.5542 3.0819 2.8164 11.368 3.3061 11.327 0.66943 11.82 0.83477 10.924 3.6599-1.9725 6.2148-0.40027 10.843 4.6474 13.68 3.3433 1.879 5.2158 2.2152 10.739 1.928l6.6898-0.34784 0.29554 6.166c0.26981 5.6294 0.57444 6.371 3.5 8.5203 1.7624 1.2949 4.4806 3.0044 6.0404 3.7989 6.1753 3.1457 7.193 4.9354 6.8393 12.027l-0.32479 6.5121-5.9889 3.4729c-9.0615 5.2547-9.7186 6.0968-9.7186 12.455 0 7.0684-0.37723 7.5954-4.5251 6.3224-4.3462-1.3339-11.792-0.21243-14.918 2.2471-2.85 2.2418-4.6631 8.3198-3.6288 12.165 0.39748 1.4777 0.46923 2.9402 0.15943 3.25-0.30979 0.30979-4.4381 0.56326-9.1741 0.56326-9.9572 0-10.834 0.43478-17.008 8.438l-4.291 5.562h-20.571zm25.001 2.1833c0-0.44971 2.3797-3.3747 5.2883-6.5l5.2883-5.6824h9.8341c8.6558 0 9.684-0.18088 8.5813-1.5096-0.78889-0.95055-1.0305-2.8947-0.65254-5.25 1.376-8.5738 2.4363-7.7297-9.8395-7.8328-6.05-0.0508-11.863 0.34301-12.918 0.87508-1.0549 0.53207-5.2132 3.672-9.2408 6.9776l-7.3228 6.0102-2.9679-2.3853c-1.6323-1.3119-5.4977-4.3804-8.5896-6.8189l-5.6217-4.4336-11.67-0.16795c-6.4183-0.0924-12.007-0.23475-12.42-0.31639-0.4125-0.0816-0.77921-4.3109-0.81491-9.3984l-0.06491-9.25-15.083-13 15.225-14-0.0122-18.5h25.553l8.2973-6.561c5.4071-4.2756 8.707-6.2619 9.4733-5.7022 0.64679 0.47235 4.3761 3.4248 8.2873 6.561l7.1113 5.7022h12.246c11.254 0 12.191-0.14174 11.569-1.75-1.4777-3.8196-1.7174-7.2935-0.70407-10.2l1.0631-3.0495h-19.276l-5.3095-5.75c-2.9202-3.1625-5.3097-6.0875-5.3099-6.5s-4.6712-0.75-10.38-0.75h-10.38l-3.8705 4.7382c-7.031 8.6072-6.3034 8.2619-17.406 8.2619-9.6116 0-9.9915 0.0816-9 1.9343 2.6759 5-0.32185 12.648-6.1364 15.654-3.4964 1.808-9.7674 2.3536-13.828 1.2029-2.4894-0.70536-2.4986-0.68327-2.1628 5.217 0.30665 5.3892 0.08915 6.1552-2.4039 8.4656-1.5076 1.3972-5.3492 3.7745-8.537 5.283l-5.7959 2.7427-0.050204 6.6826c-0.042917 5.7126 0.22561 6.7702 1.85 7.2857 1.0451 0.33171 4.6451 2.3772 8 4.5456l6.0998 3.9425v7.057c0 6.6672 0.10685 6.9998 1.9343 6.0218 5.0641-2.7102 15.025-0.48666 19.418 4.3347 2.5456 2.7938 2.8053 3.6941 2.4177 8.3801l-0.43423 5.25h18.505l5.08 5.6996c2.794 3.1348 5.08 6.0598 5.08 6.5s4.95 0.80038 11 0.80038 11-0.36794 11-0.81765zm-66.399-52.346c0.25451-0.41181 1.1233-0.49525 1.9307-0.18542 2.0359 0.78123 1.8338 1.2526-0.46275 1.0796-1.0619-0.08-1.7225-0.48237-1.468-0.89418zm62.099 31.268c1.265-1.3178 2.3-2.0675 2.3-1.666s1.8424-0.72912 4.0941-2.5126c4.0801-3.2315 4.1323-3.2424 15.25-3.1709 6.1357 0.0394 11.606 0.20739 12.156 0.37323s3.1404-0.53231 5.7564-1.5514c3.5488-1.3825 6.2782-1.715 10.75-1.3095l5.9936 0.54348v-5.8163c0-5.238 0.29899-6.0679 3.0072-8.3467 1.654-1.3917 5.254-3.7532 8-5.2478l4.9928-2.7174v-12.642l-4.25-2.1534c-2.3375-1.1844-5.9375-3.4813-8-5.1044-3.6443-2.8678-3.75-3.1337-3.75-9.4343 0-6.299-0.064-6.4601-2.25-5.666-3.555 1.2915-10.959 0.78425-14.373-0.98469-1.7178-0.88999-3.4053-1.3361-3.75-0.99138-0.34473 0.34473-0.62678 4.3009-0.62678 8.7915v8.1647l15.112 13.579-15.112 13.925v8.5832c0 4.7208-0.23992 8.3432-0.53316 8.05-0.80134-0.80133-1.0728-17.803-0.28423-17.802 0.37544 7.3e-4 0.96536-0.88953 1.3109-1.9784 0.34558-1.0888 1.1634-1.8763 1.8174-1.75 0.65398 0.12632 1.0766-0.33282 0.93906-1.0203s0.10532-1.1375 0.5396-1 2.6886-1.3719 5.0096-3.3542l4.22-3.6042-4.8099-4.3958c-2.6454-2.4177-6.0542-5.431-7.5751-6.6961-2.5956-2.1593-2.7528-2.7418-2.5621-9.5 0.11172-3.9598 0.54641-7.8747 0.96599-8.6997 0.65779-1.2934-0.93165-1.5-11.539-1.5-12.124 0-12.359-0.0434-16.254-3-11.008-8.357-12.591-9.4985-13.145-9.4808-0.32998 0.0106-4.1898 2.8231-8.5775 6.25l-7.9775 6.2308-23.869 0.20343 0.03779 8.3983 0.03779 8.3983-14.828 13.737 4.0269 3.9474c2.4788 2.4298 4.5118 3.6681 5.2881 3.221 0.69368-0.39946 0.91744-0.34784 0.49724 0.11471-0.4202 0.46254 0.34732 2.001 1.7056 3.4187 2.2008 2.2972 2.4881 3.5174 2.6397 11.211l0.17009 8.6336 24.195 0.31301 5.3433 4.2015c11.531 9.0668 11.279 8.9379 13.571 6.9605 1.1213-0.96747 3.0737-2.8372 4.3387-4.155zm-11.755-1.2141c-2.9946-2.2372-6.3571-4.9119-7.4721-5.9439-1.6927-1.5666-3.9211-1.9233-13.5-2.1611l-11.473-0.28484-0.28989-8.216-0.28989-8.216-5.9601-5.1839c-3.2781-2.8512-5.9601-5.8033-5.9601-6.5603 0-1.5494 7.9055-9.7932 10.086-10.517 1.0133-0.33645 1.5563-2.8574 1.9145-8.8882l0.5-8.4185 21.558-0.56825 7.0743-5.4659c6.722-5.1937 10.973-6.7219 12.378-4.4496 0.34546 0.55897 1.1166 0.71444 1.7135 0.34549 0.61688-0.38126 0.8002-0.20934 0.42467 0.39827-0.36341 0.58801 0.80456 1.9777 2.5955 3.0882 1.7909 1.1105 4.2332 2.9334 5.4272 4.0508 1.858 1.7387 3.7325 2.0727 13 2.3163l10.829 0.28463 0.28981 7.6246 0.2898 7.6246 4.6756 4.3754c2.5716 2.4065 5.0207 4.2655 5.4426 4.1312 0.42186-0.13427 1.0444 0.86085 1.3833 2.2114 0.51904 2.068-0.33991 3.3408-5.4431 8.0655l-6.0594 5.61-0.57858 16.357-10.808 0.1542c-11.339 0.16178-13.172 0.80394-20.317 7.1166-6.4483 5.6975-5.4348 5.5983-11.431 1.1191zm12.976-3.8899 7.756-6h21.323v-15.81l12.246-10.814-12.246-11.681-2e-3 -15.196h-21.498l-15.48-11.727-15.307 11.727-21.162 0.43542 0.18209 7.0748c0.19998 7.7699 0.55938 7.1233-8.23 14.808l-4.9388 4.3179 12.677 11.551 0.12933 7.7875 0.12933 7.7875 10.329-0.18947c9.9422-0.18238 10.462-0.0844 13.889 2.6191 7.0585 5.5678 11.788 9.1759 12.114 9.2416 0.18285 0.0368 3.8227-2.6331 8.0885-5.9331zm-16.108-2.6831c0.72188-0.28887 1.5844-0.25334 1.9167 0.0789 0.33229 0.33229-0.25833 0.56864-1.3125 0.52522-1.1649-0.048-1.4019-0.28494-0.60417-0.60417zm-22-6c0.72188-0.28887 1.5844-0.25334 1.9167 0.0789 0.33229 0.33229-0.25833 0.56864-1.3125 0.52522-1.1649-0.048-1.4019-0.28494-0.60417-0.60417zm-3.7336-11.9c0.04798-1.1649 0.28494-1.4019 0.60417-0.60417 0.28887 0.72188 0.25334 1.5844-0.07895 1.9167-0.33229 0.33229-0.56864-0.25833-0.52522-1.3125zm36.545-0.95533c-0.96498-2.5147-0.68031-3.1636 0.49853-1.1363 0.58369 1.0038 0.8506 2.0357 0.59313 2.2931-0.25747 0.25747-0.74872-0.26308-1.0917-1.1568zm-26.624-4.43c0-0.53274 0.675-0.7096 1.5-0.39301 0.825 0.31658 1.5 0.75246 1.5 0.96861 0 0.21616-0.675 0.39301-1.5 0.39301s-1.5-0.43587-1.5-0.96861zm-18-3.0904c0-0.58246 0.45-0.78091 1-0.44099s1 0.81648 1 1.059-0.45 0.44098-1 0.44098-1-0.47655-1-1.059zm74-3c0-0.58246 0.45-0.78091 1-0.44099s1 0.81648 1 1.059-0.45 0.44098-1 0.44098-1-0.47655-1-1.059zm-41.621-4.3204c0.12614-0.85948 0.50861-1.842 0.84993-2.1833 0.34132-0.34132 0.51737 0.0826 0.39122 0.94211-0.12614 0.85948-0.50861 1.8419-0.84993 2.1833-0.34132 0.34132-0.51737-0.0826-0.39122-0.94211zm16.954-0.0766c0-0.80081 0.38234-1.2197 0.84965-0.9309 0.4673 0.28881 0.59075 0.94401 0.27432 1.456-0.80862 1.3084-1.124 1.1611-1.124-0.52511zm-37.333-6.937c0-0.21615 0.69837-0.661 1.5519-0.98854 0.88992-0.3415 1.2913-0.17385 0.94098 0.39301-0.58726 0.9502-2.4929 1.4054-2.4929 0.59553zm63-2.166c0-0.85746 0.45-1.2809 1-0.94099s1 1.0415 1 1.559-0.45 0.94098-1 0.94098-1-0.70155-1-1.559zm-63-2.441c-1.2819-0.82842-1.2455-0.9716 0.25-0.98468 0.9625-8e-3 1.75 0.43468 1.75 0.98468 0 1.2196-0.11279 1.2196-2 0zm43 0.059c0-0.51754 0.44485-1.2159 0.98855-1.5519 0.56686-0.35034 0.73451 0.0511 0.39301 0.94098-0.66479 1.7324-1.3816 2.0494-1.3816 0.61095zm46.5 36.941c-0.33992-0.55-0.14148-1 0.44098-1s1.059 0.45 1.059 1-0.19844 1-0.44098 1-0.7191-0.45-1.059-1zm-0.5-4c0-0.55 0.47656-1 1.059-1s0.7809 0.45 0.44098 1-0.81648 1-1.059 1-0.44098-0.45-0.44098-1zm0-15.941c0-0.51754 0.44485-1.2159 0.98855-1.5519 0.56686-0.35034 0.7345 0.0511 0.39301 0.94099-0.66479 1.7324-1.3816 2.0494-1.3816 0.61095zm8.75-6.7213c0.6875-0.27741 1.8125-0.27741 2.5 0 0.6875 0.27742 0.125 0.50439-1.25 0.50439s-1.9375-0.22697-1.25-0.50439zm-2.75-5.3967c0-0.58246 0.45-0.78091 1-0.44099s1 0.81648 1 1.059-0.45 0.44098-1 0.44098-1-0.47655-1-1.059zm-137 61.248c0-0.51098-2.0379-1.4996-4.5287-2.197-2.4908-0.69737-4.3037-1.493-4.0287-1.768 0.65892-0.65892 9.4675 1.8216 10.099 2.8441 0.2698 0.43655 0.03321 1.0764-0.52576 1.4218-0.55897 0.34546-1.0163 0.21004-1.0163-0.30094zm3.5864-13.853c0.2722-7.7902 0.22072-15.256-0.11442-16.592-0.40394-1.6094-2.605-3.5766-6.5298-5.836-3.2563-1.8745-5.9254-3.7602-5.9313-4.1904-0.00596-0.43017 2.0443 0.36525 4.5562 1.7676 2.5119 1.4024 5.0564 2.2473 5.6545 1.8776 0.63855-0.39465 0.80128-0.20901 0.39418 0.44969-0.38132 0.61699 0.22415 1.6948 1.3455 2.395 1.8807 1.1745 2.0343 2.2433 1.9812 13.783-0.0317 6.8802-0.46112 14.309-0.95427 16.509-0.60638 2.7051-0.73643-0.58511-0.40172-10.164zm136.86 12.57c-0.37177-0.60152-0.91581-7.8612-1.209-16.133-0.60765-17.144-1.0008-16.232 9.1902-21.308 7.3018-3.637 6.7456-2.1888-0.83369 2.1704l-6.5896 3.79v15.228c0 8.3754 0.40219 15.477 0.89377 15.78 0.49157 0.30381 2.5021-0.11963 4.4679-0.94098 1.9658-0.82135 4.6011-1.4618 5.8562-1.4232 1.372 0.0422 0.0887 0.82854-3.2179 1.9718-6.424 2.2212-7.6432 2.3444-8.5579 0.86434zm-132.05-1.9142c-0.4922-0.4922-0.66928-3.7066-0.39351-7.1431 0.46645-5.8127 0.73446-6.3839 3.8454-8.1956 2.9638-1.726 3.8735-1.8118 8-0.75471 2.5608 0.65598 5.1987 1.2471 5.862 1.3136 0.66331 0.0665 1.0152 0.42963 0.78203 0.80694-0.23319 0.3773 0.2223 1.5398 1.0122 2.5833 1.9684 2.6004 1.8549 6.7671-0.25023 9.1894-1.3917 1.6014-3.4096 2.1243-9.8565 2.5543-4.4586 0.29736-8.5092 0.13795-9.0014-0.35425zm18.291-3.6311c1.5056-2.2978 1.5039-2.7456-0.02206-5.9457-1.7767-3.7257-4.8978-5.4153-10.004-5.4153-5.4959 0-7.2955 2.075-7.5369 8.6903l-0.21196 5.8098 8.0731-0.32701c7.3156-0.29632 8.2259-0.56018 9.7013-2.812zm99.146 3.7075c-4.7692-0.31265-8.8846-0.79346-9.1454-1.0685-0.99642-1.0506-2.4829-8-1.7112-8 0.44604 0 1.0839-1.0875 1.4175-2.4166 0.72359-2.883 7.4978-5.827 12.119-5.2668 4.0138 0.48663 7.4464 2.7138 8.0909 5.2496 0.8112 3.1917 0.0212 11.76-1.0994 11.924-0.55 0.0806-4.902-0.10918-9.6712-0.42183zm9.7782-2.6502c-0.33385-0.86998-0.60699-3.4978-0.60699-5.8395 0-3.5921-0.39818-4.4391-2.547-5.4182-4.8339-2.2025-12.503-1.0334-14.688 2.2392-1.172 1.7552-0.87922 8.0864 0.43469 9.4003 0.74302 0.74302 4.4016 1.2 9.607 1.2 7.2552 0 8.3238-0.2167 7.8-1.5818zm10.472-58.713-7.3443-4.2051 0.18682-12.433c0.10275-6.8382 0.41402-12.801 0.69171-13.25 0.27768-0.44931 0.0513-0.81693-0.50311-0.81693-0.59799 0-0.43475-1.3719 0.40134-3.373 0.77512-1.8551 1.141-3.6413 0.81316-3.9691-0.32789-0.32789 0.92745-0.0947 2.7896 0.51826 1.8622 0.61294 4.5803 1.1616 6.0403 1.2192s2.3987 0.51869 2.086 1.0246c-0.3127 0.50597 0.18027 0.63259 1.0955 0.28139 0.91522-0.35121 1.664-0.20268 1.664 0.33006 0 1.4296-4.566 1.1768-8.5103-0.47123-1.8953-0.79192-3.6357-1.1294-3.8675-0.75-0.23182 0.37941-0.57915 7.6192-0.77184 16.088l-0.35034 15.399 6 3.3388c3.3 1.8363 6.45 3.5079 7 3.7145s0.75771 0.64213 0.46158 0.96773c-0.29613 0.32559-3.8433-1.3003-7.8827-3.6131zm-154.08 2.1825c0.825-0.54717 3.8121-2.301 6.638-3.8974l5.138-2.9026-0.50734-15.294c-0.27904-8.4116-0.82394-15.642-1.2109-16.067-0.38696-0.42512-2.3438-0.0876-4.3485 0.75-2.0047 0.83763-4.4469 1.4925-5.4271 1.4553-1.5584-0.0592-1.531-0.17424 0.21788-0.91647 12.032-5.1065 11.948-5.2006 12.257 13.724 0.14158 8.6679-0.08342 16.24-0.5 16.826-0.93071 1.3099-11.664 7.4565-12.879 7.3752-0.48305-0.0324-0.20327-0.50649 0.62173-1.0536zm20.465-20.839c-3.4131-1.3835-4.2915-3.2888-4.6353-10.055l-0.32999-6.4939 8.875 0.28085c4.9824 0.15767 9.5877 0.81558 10.5 1.5 2.0685 1.5519 2.5012 5.668 0.98309 9.3526-0.64958 1.5766-1.0709 3.3166-0.93624 3.8666s-0.05837 0.69682-0.42893 0.32626c-0.37056-0.37056-2.4896-0.0331-4.7091 0.75-4.5014 1.5882-6.336 1.6812-9.3186 0.47222zm12.608-3.6146c2.2043-1.9949 2.5692-7.2136 0.67689-9.6824-0.92374-1.2052-3.2839-1.7118-9.0423-1.9411l-7.7923-0.31031 0.29227 6.4144c0.28935 6.3504 0.3272 6.4262 3.7906 7.5887 4.0773 1.3686 9.2568 0.48093 12.075-2.0693zm96.927 3.4427c-3.2231-1.2852-7.092-4.9195-6.4107-6.0219 0.29051-0.47005 0.0751-0.85464-0.4788-0.85464-1.2117 0 0.54709-5.8469 2.3421-7.7861 0.74267-0.80233 4.6426-1.4365 10.369-1.686l9.1782-0.4v5.371c0 7.293-1.2236 10.035-5.0778 11.378-3.8495 1.3419-6.555 1.3417-9.9217-7.4e-4zm9.5316-1.3255c3.3667-1.4067 3.4679-1.611 3.4679-7 0-3.0531 0.1125-5.8485 0.25-6.212 0.4118-1.0888-15.614-0.2815-16.984 0.85558-1.906 1.5818-1.5742 8.2162 0.50502 10.098 1.8934 1.7135 5.9096 3.5403 8.0116 3.6442 0.70516 0.0349 2.8427-0.58865 4.75-1.3856zm-10.989-4.4819c-0.31644-0.51199-0.19299-1.1672 0.27431-1.456 0.46731-0.28881 0.84965 0.1301 0.84965 0.9309 0 1.6862-0.31534 1.8335-1.124 0.52511zm9.4573 0.53789c0-0.21615 0.69837-0.661 1.5519-0.98854 0.88992-0.3415 1.2913-0.17385 0.94098 0.39301-0.58726 0.9502-2.4929 1.4054-2.4929 0.59553zm-135.5-15.466c4.4519-2.1076 8.0265-5.6057 8.8295-8.6405 0.33069-1.2498 0.4619-0.9125 0.34983 0.89937-0.21158 3.4206-5.5432 8.1645-10.179 9.0572-2.6257 0.50555-2.5009 0.34135 1-1.316zm10.153 1.1095c-0.25564-0.4125 9.5671-0.60563 21.828-0.42917l22.293 0.32082 4.6126-5.6625c2.5369-3.1144 4.6126-5.0578 4.6126-4.3187 0 0.7391-1.9897 3.4804-4.4216 6.0917l-4.4216 4.7479h-22.019c-12.111 0-22.228-0.3375-22.484-0.75zm89.825-0.0153c-2.0071-1.4433-8.4777-9.6146-8.445-10.665 0.0183-0.5885 0.95921 0.055 2.0909 1.43 1.1317 1.375 3.3776 3.9625 4.991 5.75l2.9333 3.25h20.417c11.229 0 20.666-0.40316 20.97-0.89592s-0.11613-2.1803-0.93483-3.75c-1.7706-3.3948-2.0687-7.3219-0.43155-5.6848 0.93559 0.9356 1.6006 2.9583 1.8542 5.6397 0.0421 0.44496 0.44977 0.57833 0.90597 0.29638 1.0094-0.62386 0.87219 2.4503-0.18582 4.1622-0.56527 0.91464-6.2259 1.2285-21.953 1.2171-11.655-8e-3 -21.651-0.34592-22.213-0.75zm52.927-0.98469c-5.2251-2.9849-6.0776-3.6817-7.2594-5.9343-1.4116-2.6905-1.4666-4.3157-0.14598-4.3157 0.55 0 1 0.85339 1 1.8964 0 2.2479 6.3288 8.097 8.7848 8.1189 0.94336 8e-3 2.3902 0.45153 3.2152 0.98468 2.8199 1.8224-2.291 1.1372-5.5946-0.75zm-142.41-1.8243c0-0.55156 0.94714-2.7855 2.1048-4.9643l2.1048-3.9614-0.62708 3.4866c-0.5747 3.1954-3.5824 7.7619-3.5824 5.4391zm35.029-0.38667c-0.80907-0.51167-1.2107-1.1906-0.8925-1.5088 0.3182-0.3182 1.1478 0.10734 1.8435 0.94563 1.4426 1.7382 1.166 1.902-0.95098 0.56322zm111.97-1.0981c0-0.58246 0.45-0.78091 1-0.44099s1 0.81648 1 1.059-0.45 0.44098-1 0.44098-1-0.47655-1-1.059zm-109.5-2.941c-0.33992-0.55-0.14148-1 0.44098-1s1.059 0.45 1.059 1-0.19844 1-0.44098 1-0.7191-0.45-1.059-1zm74.233-2.1241c0.67834-0.68342 1.4852-0.99068 1.7931-0.68279s-0.24711 0.86705-1.2333 1.2426c-1.4252 0.54269-1.5401 0.42782-0.5598-0.55979zm-71.226-0.86446c-0.35034-0.56686 0.05106-0.73451 0.94098-0.39301 1.7324 0.66479 2.0494 1.3816 0.61096 1.3816-0.51754 0-1.2159-0.44484-1.5519-0.98854zm5.4929-0.0115c0.825-0.53315 1.95-0.96937 2.5-0.96937s0.325 0.43622-0.5 0.96937c-0.825 0.53316-1.95 0.96938-2.5 0.96938s-0.325-0.43622 0.5-0.96938z"/>
</svg>
